<svg width="40" height="53" viewBox="0 0 40 53" fill="none" xmlns="http://www.w3.org/2000/svg">
<path d="M36.5279 32.0053L39.0579 34.5353L28.7079 45.8653L26.6379 47.7754L23.6379 50.5754C23.4392 50.767 23.2214 50.9379 22.9879 51.0854C22.6426 51.3113 22.2738 51.4991 21.8879 51.6453C21.8283 51.6547 21.7676 51.6547 21.7079 51.6453C21.6367 51.6319 21.5688 51.6047 21.5079 51.5653C21.1184 51.3607 20.7557 51.1088 20.4279 50.8153C20.2008 50.5798 20.0028 50.318 19.8379 50.0353C19.5568 49.6231 19.4399 49.1207 19.5102 48.6267C19.5805 48.1327 19.8329 47.6828 20.2179 47.3653L21.2179 45.7353L22.3579 43.7953C22.5614 43.4266 22.7065 43.0286 22.7879 42.6153L23.7879 36.4454C23.8882 35.8433 23.7674 35.2254 23.4479 34.7053L21.3579 31.2754L26.8579 28.8054L28.7979 27.5653L30.1279 26.2354L36.5279 32.0053Z" fill="white"/>
<path d="M21.6974 52.6255H21.6474C21.4237 52.6063 21.2078 52.5344 21.0174 52.4155C20.5613 52.1736 20.1379 51.8745 19.7574 51.5255C19.4629 51.228 19.2106 50.8915 19.0074 50.5255C18.853 50.2687 18.732 49.9931 18.6474 49.7055C18.565 49.2452 18.5794 48.7727 18.6896 48.3182C18.7998 47.8637 19.0034 47.4371 19.2874 47.0655L21.4874 43.3255C21.6303 43.0583 21.7347 42.7721 21.7974 42.4755L22.7974 36.3155C22.8572 35.9312 22.7793 35.538 22.5774 35.2055L20.4874 31.7755C20.4202 31.6603 20.3768 31.5329 20.3596 31.4006C20.3424 31.2684 20.3519 31.1341 20.3874 31.0055C20.427 30.877 20.4939 30.7586 20.5837 30.6585C20.6735 30.5583 20.7839 30.4789 20.9074 30.4255L26.3374 27.9855L28.1374 26.8355L29.3974 25.5755C29.5718 25.411 29.8026 25.3193 30.0424 25.3193C30.2822 25.3193 30.5129 25.411 30.6874 25.5755L37.1674 31.3055L39.7074 33.8455C39.8623 34.0267 39.9474 34.2572 39.9474 34.4955C39.9474 34.7339 39.8623 34.9644 39.7074 35.1455L29.3474 46.4655L29.2974 46.5255L24.2074 51.2355C23.9648 51.4632 23.7039 51.6706 23.4274 51.8555C23.0205 52.1127 22.5882 52.3271 22.1374 52.4955C21.9988 52.5626 21.8501 52.6065 21.6974 52.6255ZM22.6274 31.7355L24.1574 34.2555C24.5936 34.9671 24.7603 35.8115 24.6274 36.6355L23.6274 42.8055C23.5243 43.33 23.3423 43.8358 23.0874 44.3055L20.9074 48.1155C20.5774 48.6555 20.3874 49.0055 20.4674 49.3055C20.5081 49.4276 20.5618 49.5449 20.6274 49.6555C20.7518 49.8648 20.8994 50.0593 21.0674 50.2355C21.2785 50.4239 21.5099 50.5883 21.7574 50.7255C22.0042 50.6188 22.2417 50.4917 22.4674 50.3455C22.6479 50.2225 22.8184 50.0854 22.9774 49.9355L28.0374 45.2455L37.7674 34.5655L35.8874 32.6855L30.0874 27.5655L29.3874 28.2655L29.2274 28.3955L27.2874 29.6355L27.1674 29.7055L22.6274 31.7355Z" fill="white"/>
<path d="M17.7681 24.185C16.625 23.8409 15.4287 23.7087 14.2381 23.795C12.3481 23.945 11.9081 23.695 11.1681 22.705C10.9224 22.3016 10.8185 21.8277 10.8728 21.3585C10.9272 20.8893 11.1367 20.4516 11.4681 20.115C11.691 19.8995 11.84 19.619 11.8939 19.3137C11.9478 19.0084 11.9037 18.6938 11.7681 18.415L10.3481 19.415C8.44481 19.8187 6.52236 20.1257 4.58807 20.335C4.1394 20.1311 3.64739 20.0408 3.15554 20.0722C2.66369 20.1036 2.18716 20.2557 1.76806 20.515C0.518059 21.455 0.83806 22.895 1.98806 24.435C3.13806 25.975 6.32805 29.955 8.19805 32.765C9.56712 34.891 11.1126 36.8981 12.8181 38.765C13.5075 39.5248 14.2639 40.2209 15.0781 40.845C15.6234 41.2973 16.2424 41.6525 16.9081 41.895C17.2134 41.995 17.5427 41.995 17.8481 41.895C18.0545 41.8135 18.2443 41.6949 18.4081 41.545C18.4609 41.5111 18.5027 41.4625 18.5281 41.405C18.5429 41.3358 18.5429 41.2642 18.5281 41.195C17.9717 38.7641 17.1986 36.3879 16.2181 34.095C16.1081 33.815 15.9781 33.535 15.8881 33.245C15.0281 30.645 15.0881 28.845 15.8881 27.325C16.6881 25.805 17.7681 24.185 17.7681 24.185Z" fill="white"/>
<path d="M17.3877 42.9053C17.1303 42.9066 16.8741 42.8695 16.6277 42.7953C15.849 42.5316 15.1266 42.1246 14.4977 41.5953C13.6376 40.9413 12.8377 40.2117 12.1077 39.4153C10.3729 37.5217 8.7976 35.4881 7.39766 33.3353C6.04766 31.3353 4.02765 28.7053 2.55765 26.7953L1.20766 25.0453C0.579825 24.2851 0.168711 23.3696 0.0176556 22.3953C-0.0386733 21.8996 0.0403679 21.398 0.246385 20.9437C0.452402 20.4894 0.77769 20.0994 1.18765 19.8153C1.69569 19.467 2.2817 19.2492 2.89388 19.1812C3.50606 19.1132 4.12556 19.197 4.69765 19.4253C6.89765 19.1453 9.29766 18.7953 9.86766 18.6453L11.1777 17.6453C11.3818 17.5036 11.6313 17.443 11.8777 17.4753C12.0006 17.4919 12.1189 17.5333 12.2255 17.5969C12.332 17.6605 12.4246 17.745 12.4977 17.8453C12.7806 18.3234 12.8865 18.8858 12.797 19.4342C12.7074 19.9825 12.428 20.482 12.0077 20.8453C11.9477 20.9253 11.5577 21.6553 11.9077 22.1253C12.4177 22.8053 12.5377 22.9653 14.1477 22.8353C15.4629 22.7437 16.7839 22.8894 18.0477 23.2653C18.1819 23.3088 18.3042 23.3829 18.4049 23.4819C18.5055 23.5808 18.5818 23.7018 18.6277 23.8353C18.6733 23.9698 18.6898 24.1125 18.676 24.2539C18.6622 24.3953 18.6185 24.5321 18.5477 24.6553C18.5477 24.6553 17.5477 26.2753 16.7377 27.7653C16.0077 29.0753 16.0177 30.6653 16.7377 32.9353C16.7377 33.0953 16.8577 33.2553 16.9277 33.4253L17.0576 33.7353L17.1877 34.0753C18.1335 36.3107 18.8765 38.6267 19.4077 40.9953C19.4785 41.2334 19.4785 41.4871 19.4077 41.7253C19.3324 41.9281 19.2005 42.1051 19.0277 42.2353C18.7792 42.4625 18.4911 42.6421 18.1777 42.7653C17.9242 42.8565 17.657 42.9038 17.3877 42.9053ZM3.22766 21.0453C2.90136 21.0327 2.58047 21.1314 2.31766 21.3253C2.16777 21.4138 2.04715 21.5444 1.97072 21.7008C1.89429 21.8572 1.8654 22.0326 1.88765 22.2053C2.01372 22.8368 2.29947 23.4255 2.71765 23.9153C3.02765 24.3353 3.49765 24.9153 4.04765 25.6453C5.53765 27.5753 7.57766 30.2253 8.95766 32.2953C10.2998 34.3608 11.8117 36.3109 13.4777 38.1253C14.1301 38.8542 14.8463 39.5235 15.6177 40.1253C16.0746 40.5127 16.5958 40.8173 17.1577 41.0253C17.2727 41.0529 17.3926 41.0529 17.5077 41.0253C16.9892 38.8979 16.3038 36.8148 15.4577 34.7953L15.3177 34.4453C15.3177 34.3553 15.2477 34.2653 15.2077 34.1753C15.1677 34.0853 15.0377 33.7553 14.9677 33.5453C14.0477 30.7453 14.0877 28.6853 15.0877 26.8853C15.4877 26.1553 15.9277 25.4153 16.2677 24.8253C15.6072 24.7137 14.9355 24.6835 14.2677 24.7353C12.1677 24.9053 11.3577 24.6153 10.3677 23.2753C10.1249 22.9406 9.96101 22.5554 9.88828 22.1484C9.81554 21.7414 9.83583 21.3233 9.94765 20.9253C9.94765 20.7853 10.0277 20.6553 10.0677 20.5253C9.33766 20.6953 7.83766 20.9353 4.65766 21.3353C4.47927 21.3561 4.29866 21.3248 4.13765 21.2453C3.84838 21.1258 3.54037 21.0581 3.22766 21.0453Z" fill="white"/>
<path d="M8.63157 17.6989L6.47559 18.1367L6.97713 20.6063L9.13312 20.1685L8.63157 17.6989Z" fill="white"/>
<path d="M6.97766 21.1153C6.87731 21.1147 6.77956 21.0832 6.69765 21.0253C6.58574 20.951 6.50692 20.8364 6.47766 20.7053L5.97766 18.2253C5.95117 18.0927 5.97841 17.955 6.05342 17.8425C6.12843 17.7299 6.24506 17.6518 6.37766 17.6253L8.53766 17.1853C8.66992 17.1608 8.80649 17.1896 8.91765 17.2653C8.97419 17.3008 9.02288 17.3475 9.06072 17.4026C9.09855 17.4576 9.12472 17.5198 9.13765 17.5853L9.63765 20.0653C9.66414 20.1979 9.6369 20.3356 9.56189 20.4481C9.48688 20.5606 9.37025 20.6387 9.23766 20.6653L7.08766 21.1053L6.97766 21.1153ZM7.08766 18.5253L7.37766 19.9953L8.53766 19.7653L8.23766 18.2953L7.08766 18.5253Z" fill="white"/>
<path d="M15.2578 32.2251C15.1923 32.2128 15.134 32.1759 15.0949 32.122C15.0558 32.068 15.039 32.0011 15.0478 31.9351L19.2778 6.32506C17.3678 13.9251 14.9078 23.5751 14.6378 23.8851C14.591 23.9309 14.5282 23.9565 14.4628 23.9565C14.3973 23.9565 14.3345 23.9309 14.2878 23.8851C14.2477 23.8394 14.2256 23.7808 14.2256 23.7201C14.2256 23.6593 14.2477 23.6007 14.2878 23.5551C14.6278 22.8651 18.0878 9.22506 20.2878 0.185058C20.3064 0.123109 20.3475 0.0703409 20.403 0.0370556C20.4584 0.00377041 20.5243 -0.00764083 20.5878 0.00505796C20.6506 0.0172466 20.7064 0.0530841 20.7436 0.105179C20.7808 0.157273 20.7966 0.221653 20.7878 0.285057L15.5478 31.9951C15.5441 32.0293 15.5336 32.0625 15.5169 32.0926C15.5003 32.1227 15.4778 32.1493 15.4509 32.1707C15.4239 32.1921 15.3929 32.2079 15.3598 32.2172C15.3266 32.2266 15.292 32.2292 15.2578 32.2251Z" fill="white"/>
<path d="M22.5579 33.6849C22.4933 33.6849 22.4312 33.66 22.3846 33.6152C22.338 33.5705 22.3105 33.5094 22.3079 33.4449L20.2479 0.284868C20.2452 0.252016 20.249 0.218951 20.2591 0.18757C20.2692 0.156189 20.2854 0.127116 20.3068 0.102022C20.3281 0.0769272 20.3543 0.0563095 20.3836 0.0413527C20.413 0.026396 20.4451 0.0173947 20.4779 0.0148711C20.5453 0.0120839 20.6111 0.0355513 20.6614 0.0803237C20.7118 0.125096 20.7428 0.187673 20.7479 0.254869L22.7679 33.4149C22.7707 33.4477 22.7669 33.4808 22.7568 33.5122C22.7467 33.5435 22.7305 33.5726 22.7091 33.5977C22.6877 33.6228 22.6616 33.6434 22.6322 33.6584C22.6028 33.6733 22.5708 33.6823 22.5379 33.6849H22.5579Z" fill="white"/>
<path d="M18.9279 9.1157C18.6557 9.10228 18.3865 9.05181 18.1279 8.9657C17.7979 8.8657 17.7679 8.6757 17.7779 8.5657C17.7879 8.4557 17.9279 8.2957 18.1079 8.1957C18.0981 8.15293 18.0981 8.10847 18.1079 8.0657C18.1079 7.9557 18.2179 7.8257 18.4779 7.7857C18.5656 7.76646 18.6566 7.76821 18.7435 7.7908C18.8304 7.81339 18.9107 7.85619 18.9779 7.9157H19.2179H19.2779C19.3979 7.9157 19.6979 7.9957 19.7479 8.2457C19.7979 8.4957 19.7479 8.5657 19.4879 8.7057H19.3879C19.4139 8.77673 19.4139 8.85467 19.3879 8.9257C19.2979 9.0357 19.1279 9.1157 18.9279 9.1157Z" fill="white"/>
<path d="M21.7681 18.9958H21.6681C21.5807 18.9831 21.5 18.9419 21.4385 18.8786C21.377 18.8153 21.3382 18.7335 21.3281 18.6458H21.2581C21.2198 18.6356 21.1851 18.6148 21.1581 18.5858C21.0955 18.528 21.0474 18.4561 21.0178 18.3762C20.9883 18.2962 20.9781 18.2104 20.9881 18.1258C21.0136 18.0287 21.0638 17.9398 21.1339 17.868C21.204 17.7961 21.2916 17.7437 21.3881 17.7158C21.444 17.7029 21.5022 17.7029 21.5581 17.7158C21.5588 17.6374 21.5843 17.5613 21.6311 17.4984C21.6778 17.4355 21.7433 17.3891 21.8181 17.3658C22.1781 17.2558 22.4981 17.7358 22.6181 17.9358C22.6731 18.0169 22.7025 18.1127 22.7025 18.2108C22.7025 18.3088 22.6731 18.4046 22.6181 18.4858C22.5085 18.6064 22.3597 18.6844 22.1981 18.7058C22.1815 18.8034 22.1362 18.8939 22.0681 18.9658C21.975 19.0117 21.8684 19.0223 21.7681 18.9958Z" fill="white"/>
<path d="M24.8675 31.735C24.8107 31.7339 24.756 31.7135 24.7124 31.6771C24.6688 31.6408 24.6388 31.5907 24.6275 31.535L22.0975 18.475C22.088 18.4092 22.1032 18.3421 22.1401 18.2867C22.177 18.2314 22.2331 18.1916 22.2975 18.175C22.3637 18.1631 22.4319 18.1773 22.4878 18.2146C22.5437 18.2519 22.583 18.3094 22.5975 18.375L25.1175 31.435C25.1248 31.4679 25.1253 31.5019 25.1191 31.535C25.1129 31.5681 25.1001 31.5996 25.0814 31.6276C25.0627 31.6556 25.0386 31.6796 25.0104 31.698C24.9823 31.7165 24.9506 31.7291 24.9175 31.735H24.8675Z" fill="white"/>
</svg>
