<svg width="51" height="40" viewBox="0 0 51 40" fill="none" xmlns="http://www.w3.org/2000/svg">
<path d="M14.1178 24.7242C11.337 24.7242 9.05771 22.6001 9.05771 19.8322C9.05771 17.0579 11.3435 14.7721 14.1178 14.7721C16.8857 14.7721 19.0098 17.0514 19.0098 19.8322C19.0098 22.6032 16.7273 24.7242 14.1178 24.7242ZM14.1178 16.9931C12.5224 16.9931 11.2787 18.2367 11.2787 19.8322C11.2787 21.2657 12.5287 22.5032 14.1178 22.5032C15.5452 22.5032 16.7888 21.2595 16.7888 19.8322C16.7888 18.2431 15.5514 16.9931 14.1178 16.9931Z" fill="#D8203B" stroke="white" stroke-width="0.3"/>
<path d="M13.3462 37.3664L13.0481 37.629H13.4454H47.7311H47.8811V37.479V30.7563V30.689L47.8309 30.6443L38.5872 22.409L38.4766 22.3105L38.3767 22.4198L31.1498 30.3189L31.0508 30.4272L31.1568 30.5286L35.02 34.2237C35.0204 34.2241 35.0207 34.2245 35.0211 34.2248C35.2838 34.4881 35.372 34.7808 35.3495 35.056C35.3265 35.3359 35.1878 35.6085 34.978 35.8183C34.7682 36.0281 34.4956 36.1668 34.2157 36.1898C33.9401 36.2124 33.6469 36.1239 33.3834 35.8603L33.3823 35.8593L24.8109 27.4559L24.7114 27.3583L24.6068 27.4505L13.3462 37.3664ZM47.6295 27.5053L47.8811 27.7368V27.395V2.52101V2.37101H47.7311H2.52101H2.37101V2.52101V37.479V37.629H2.52101H9.57983H9.63605L9.67842 37.592L24.1322 24.987L24.1324 24.9873L24.1397 24.98C24.3677 24.752 24.625 24.6458 24.874 24.6458C25.1229 24.6458 25.3802 24.752 25.6082 24.98L29.3057 28.6775L29.4161 28.7879L29.522 28.6732L37.5871 19.9359C37.8167 19.7072 38.1217 19.5561 38.422 19.5186C38.7211 19.4812 39.0082 19.5565 39.2217 19.7699L39.2216 19.77L39.2262 19.7743L47.6295 27.5053ZM48.9076 0.15C49.5095 0.15 50.1021 0.599063 50.1021 1.34454V38.6555C50.1021 39.4009 49.5095 39.85 48.9076 39.85H1.34454C0.954446 39.85 0.65998 39.7336 0.463209 39.5368C0.266438 39.34 0.15 39.0456 0.15 38.6555V1.34454C0.15 0.954446 0.266438 0.65998 0.463209 0.463209C0.65998 0.266438 0.954446 0.15 1.34454 0.15H48.9076Z" fill="#D8203B" stroke="white" stroke-width="0.3"/>
</svg>
