<svg width="56" height="39" viewBox="0 0 56 39" fill="none" xmlns="http://www.w3.org/2000/svg">
<path d="M54.7761 1H1V37.6431H54.7761V1Z" stroke="#D8203B" stroke-width="2" stroke-miterlimit="10" stroke-linecap="round" stroke-linejoin="round"/>
<path d="M8.16325 17.2637H7.82788V29.783H8.16325V17.2637Z" fill="#D8203B"/>
<path d="M9.33544 17.2637H8.72656V29.783H9.33544V17.2637Z" fill="#D8203B"/>
<path d="M6.42441 17.2637H4.7085V29.783H6.42441V17.2637Z" fill="#D8203B"/>
<path d="M15.1669 17.2637H14.5222V29.783H15.1669V17.2637Z" fill="#D8203B"/>
<path d="M22.3757 17.2637H21.9329V29.783H22.3757V17.2637Z" fill="#D8203B"/>
<path d="M25.7098 17.2637H24.6809V29.783H25.7098V17.2637Z" fill="#D8203B"/>
<path d="M17.4167 17.2637H16.2478V29.783H17.4167V17.2637Z" fill="#D8203B"/>
<path d="M13.7701 17.2637H10.4783V29.783H13.7701V17.2637Z" fill="#D8203B"/>
<path d="M21.0178 17.2637H19.3247V29.783H21.0178V17.2637Z" fill="#D8203B"/>
<path d="M28.5555 17.2637H26.667V29.783H28.5555V17.2637Z" fill="#D8203B"/>
<path d="M31.5933 17.2637H30.2942V29.783H31.5933V17.2637Z" fill="#D8203B"/>
<path d="M42.283 17.2637H41.7979V29.783H42.283V17.2637Z" fill="#D8203B"/>
<path d="M44.6272 17.2637H43.748V29.783H44.6272V17.2637Z" fill="#D8203B"/>
<path d="M46.1184 17.2637H45.6333V29.783H46.1184V17.2637Z" fill="#D8203B"/>
<path d="M47.9386 17.2637H47.574V29.783H47.9386V17.2637Z" fill="#D8203B"/>
<path d="M51.0642 17.2637H49.0325V29.783H51.0642V17.2637Z" fill="#D8203B"/>
<path d="M34.5988 17.2637H32.5703V29.783H34.5988V17.2637Z" fill="#D8203B"/>
<path d="M39.7693 17.2637H37.2915V29.783H39.7693V17.2637Z" fill="#D8203B"/>
<path d="M4.76074 6.92578H51.0123" stroke="#D8203B" stroke-width="2" stroke-miterlimit="10" stroke-linecap="round" stroke-linejoin="round"/>
<path d="M11.5168 13.3203H44.256" stroke="#D8203B" stroke-width="2" stroke-miterlimit="10" stroke-linecap="round" stroke-linejoin="round"/>
<path d="M5.25879 32.9385H8.79806" stroke="#D8203B" stroke-width="2" stroke-miterlimit="10" stroke-linecap="round" stroke-linejoin="round"/>
<path d="M29.3564 32.9385H50.5107" stroke="#D8203B" stroke-width="2" stroke-miterlimit="10" stroke-linecap="round" stroke-linejoin="round"/>
</svg>
