<svg width="49" height="45" viewBox="0 0 49 45" fill="none" xmlns="http://www.w3.org/2000/svg">
<path d="M48.3646 11.8027C48.3583 11.771 48.3488 11.7393 48.3394 11.7044C48.33 11.6727 48.3206 11.641 48.3111 11.6061C48.2986 11.5712 48.2797 11.5363 48.264 11.5014C48.2546 11.4824 48.2483 11.4602 48.2357 11.4411L41.7018 0.501165C41.5164 0.190316 41.1801 0 40.8187 0H7.26616C6.89845 0 6.55903 0.199831 6.3736 0.520196L0.138283 11.4633C0.128855 11.4792 0.122569 11.4982 0.113141 11.5173C0.0974268 11.549 0.0817128 11.5839 0.0691416 11.6188C0.0565704 11.6505 0.047142 11.6822 0.0408564 11.7171C0.031428 11.7488 0.0251424 11.7805 0.0188568 11.8123C0.0125712 11.8503 0.0094284 11.8884 0.0062856 11.9264C0.0062856 11.9455 0 11.9645 0 11.9835V22.0227C0 22.5968 0.461992 23.0631 1.03084 23.0631H2.67138V43.0018C2.67138 43.576 3.13337 44.0422 3.70222 44.0422H44.8289C45.3978 44.0422 45.8598 43.576 45.8598 43.0018V23.0631H47.3557C47.9246 23.0631 48.3866 22.5968 48.3866 22.0227V11.9835C48.3866 11.9613 48.3803 11.9423 48.3803 11.9201C48.374 11.8789 48.3708 11.8408 48.3646 11.8027ZM7.86015 2.08396H40.2373L45.5298 10.9432H2.80966L7.86015 2.08396ZM43.8012 41.9614H4.73306V23.0599H43.8012V41.9614ZM46.3249 20.9823H44.8289H3.70222H2.05853V13.0208H46.3249V20.9823Z" fill="#D8203B"/>
<path d="M9.07002 38.5359H20.2647C20.623 38.5359 20.9121 38.2441 20.9121 37.8825V30.2413C20.9121 29.8797 20.623 29.5879 20.2647 29.5879H9.07002C8.71175 29.5879 8.42261 29.8797 8.42261 30.2413V37.8825C8.42261 38.2441 8.71175 38.5359 9.07002 38.5359Z" fill="#D8203B"/>
</svg>
