<svg width="27" height="70" viewBox="0 0 27 70" fill="none" xmlns="http://www.w3.org/2000/svg">
<path d="M9.50049 69.9965C6.91197 69.9965 0.194228 68.2768 0.194228 60.4203C0.194228 56.6769 1.1283 52.3083 2.02791 48.0814C2.81721 44.3897 3.55827 40.9053 3.55827 38.3394C3.55827 34.817 2.5139 31.4188 1.59017 28.4179C1.00077 26.4909 0.442395 24.6675 0.204568 22.996C-0.42619 18.5481 0.466522 13.924 1.99344 8.34682C3.68235 2.1929 8.06663 0 11.6099 0H12.0097C12.0752 0 12.1373 0 12.2028 0C15.3221 0 16.7559 0.438579 21.7744 6.82733C27.3134 13.8757 27.3651 29.4539 25.8381 35.48C24.4698 40.888 21.8365 54.5703 20.8955 61.1662C19.8684 68.3734 12.1304 69.9965 9.50049 69.9965ZM12.3406 2.11692C12.2372 2.11692 12.1304 2.11692 12.0201 2.11692H11.6099C10.2691 2.11692 5.7642 2.6073 4.03737 8.90626C2.57594 14.2279 1.72459 18.6103 2.3002 22.6991C2.5139 24.2082 3.04815 25.9487 3.61686 27.7962C4.58196 30.9388 5.67803 34.5027 5.67803 38.3429C5.67803 41.1332 4.91285 44.7247 4.09941 48.5303C3.22049 52.6468 2.31054 56.9048 2.31054 60.4272C2.31054 67.7967 9.42466 67.8831 9.49704 67.8831C11.6513 67.8831 17.983 66.595 18.7999 60.8693C19.7684 54.0868 22.3776 40.5289 23.7873 34.962C25.2832 29.0567 25.0213 14.3902 20.1096 8.14307C15.5771 2.36556 14.6051 2.11692 12.3406 2.11692Z" fill="#D8203B"/>
<path d="M24.6766 16.6934H1.27993C1.19032 17.4151 1.12138 18.1231 1.08691 18.8137H25.0488C24.942 18.0989 24.8179 17.3909 24.6766 16.6934Z" fill="#D8203B"/>
<path d="M25.3349 21.0586H1.08691C1.11793 21.6595 1.16964 22.2535 1.25236 22.8474C1.26615 22.9579 1.29027 23.0685 1.30751 23.1824H25.5072C25.4659 22.4779 25.4073 21.77 25.3349 21.0586Z" fill="#D8203B"/>
<path d="M2.43463 27.5471H25.6176C25.6279 26.8565 25.6244 26.1485 25.6072 25.4268H1.81421C2.00033 26.1105 2.21059 26.8185 2.43463 27.5471Z" fill="#D8203B"/>
<path d="M3.70658 31.9124H25.366C25.4384 31.2493 25.4936 30.5345 25.5384 29.792H3.11719C3.32055 30.4827 3.52391 31.1906 3.70658 31.9124Z" fill="#D8203B"/>
<path d="M4.5094 36.2805H24.5523C24.6419 35.9007 24.7316 35.545 24.8143 35.2169C24.897 34.8957 24.9728 34.54 25.0418 34.1602H4.20264C4.33361 34.8543 4.43702 35.5622 4.5094 36.2805Z" fill="#D8203B"/>
<path d="M4.47168 40.6458H23.5805C23.7391 39.9033 23.8907 39.1953 24.0389 38.5254H4.61644C4.6061 39.185 4.55785 39.8929 4.47168 40.6458Z" fill="#D8203B"/>
<path d="M3.75122 45.0149H22.6877C22.8291 44.2932 22.9738 43.5887 23.1151 42.8945H4.14415C4.02696 43.5783 3.89598 44.2897 3.75122 45.0149Z" fill="#D8203B"/>
<path d="M2.83447 49.3792H21.8399C21.9743 48.6712 22.1088 47.9633 22.2432 47.2588H3.286C3.13779 47.9598 2.98613 48.6678 2.83447 49.3792Z" fill="#D8203B"/>
<path d="M1.96924 53.7444H21.0436C21.1677 53.0503 21.2952 52.3423 21.4262 51.624H2.36906C2.22775 52.3354 2.09332 53.0434 1.96924 53.7444Z" fill="#D8203B"/>
</svg>
