<svg width="44" height="45" viewBox="0 0 44 45" fill="none" xmlns="http://www.w3.org/2000/svg">
<path d="M43.9648 17.3568C43.9616 17.3187 43.9584 17.2807 43.9488 17.2458C43.9488 17.2426 43.9488 17.2363 43.9456 17.2331L39.9838 0.799325C39.9742 0.75809 39.9581 0.720028 39.9453 0.678793C39.9389 0.662933 39.9357 0.647073 39.9293 0.631213C39.9037 0.574118 39.8749 0.520197 39.8397 0.466274C39.8301 0.450414 39.8173 0.434555 39.8045 0.421867C39.7789 0.386976 39.7501 0.352084 39.7213 0.320364C39.7053 0.304505 39.6861 0.288646 39.6701 0.272786C39.6413 0.247411 39.6125 0.222035 39.5805 0.199832C39.5613 0.183972 39.5389 0.171284 39.5165 0.158596C39.4845 0.139565 39.4493 0.120533 39.4173 0.104673C39.3949 0.0951572 39.3725 0.08247 39.3469 0.0729542C39.3085 0.0570946 39.2669 0.0475791 39.2285 0.0348914C39.2061 0.0285476 39.1869 0.0222039 39.1645 0.019032C39.1005 0.00634429 39.0365 0 38.9693 0H5.68362C5.61641 0 5.55241 0.00634429 5.48841 0.019032C5.466 0.0222039 5.4468 0.0285476 5.4244 0.0348914C5.3828 0.0444072 5.34439 0.0570946 5.30279 0.0729542C5.28039 0.08247 5.25799 0.0919858 5.23559 0.101502C5.20038 0.117361 5.16518 0.136393 5.12998 0.158596C5.11078 0.171284 5.09158 0.1808 5.07237 0.196659C5.03717 0.222035 5.00197 0.250582 4.96997 0.282301C4.95717 0.294989 4.94436 0.304505 4.93156 0.317193C4.88676 0.3616 4.84836 0.409178 4.81316 0.459929C4.80675 0.469444 4.80355 0.478961 4.79715 0.488477C4.77155 0.529712 4.74595 0.574119 4.72355 0.621698C4.71395 0.643901 4.70755 0.666104 4.69795 0.688308C4.68835 0.713683 4.67875 0.735886 4.66914 0.764434L0.0384028 17.195C0.0352026 17.2077 0.0352026 17.2172 0.0320024 17.2299C0.0224017 17.2648 0.0192014 17.2997 0.0128009 17.3346C0.00640047 17.3727 0.00320024 17.4075 0.00320024 17.4456C0.00320024 17.4583 0 17.4678 0 17.4773V43.0018C0 43.576 0.470435 44.0422 1.04968 44.0422H42.928C43.5072 44.0422 43.9776 43.576 43.9776 43.0018V17.4773C43.9776 17.471 43.9776 17.4678 43.9744 17.4615C43.9744 17.4266 43.968 17.3917 43.9648 17.3568ZM6.7333 16.4338V2.08078H37.9164V16.4369H6.7333V16.4338ZM2.42898 16.4338L4.63714 8.61179V16.4338H2.42898ZM40.0126 9.86152L41.5967 16.4369H40.0126V9.86152V9.86152ZM41.8783 41.9583H2.09615V18.5145H41.8783V41.9583Z" fill="#D8203B"/>
<path d="M33.8072 5.58301H25.237C24.9489 5.58301 24.7153 5.81456 24.7153 6.10003V12.4153C24.7153 12.7008 24.9489 12.9324 25.237 12.9324H33.8104C34.0984 12.9324 34.332 12.7008 34.332 12.4153V6.10003C34.3288 5.81456 34.0952 5.58301 33.8072 5.58301Z" fill="#D8203B"/>
</svg>
