<svg width="78" height="55" viewBox="0 0 78 55" fill="none" xmlns="http://www.w3.org/2000/svg">
<path d="M1 36.3601V47.3458L48.0124 49.4327L56.6424 49.103L69.2669 48.6181C70.1101 48.5871 70.961 48.5212 71.7848 48.3427C73.0243 48.0712 74.2366 47.6677 75.3945 47.1402C75.5577 47.0665 75.7248 46.985 75.8492 46.8493C76.0007 46.6863 76.0629 46.4613 76.1211 46.2441C76.4709 44.9446 76.8206 43.6296 76.84 42.2835C76.8516 41.2866 76.6807 40.2935 76.432 39.3276C76.2688 38.6953 76.0667 38.0631 75.7365 37.5006C74.4853 35.3748 72.0257 34.9287 69.8342 34.3624C67.9574 33.8775 66.0806 33.3926 64.2039 32.9077L57.505 31.1737C56.4676 30.9061 54.9094 30.169 54.0429 29.5406L38.5392 18.3145C37.0199 17.2128 35.9397 15.6068 35.4967 13.7836L32.5903 1.83984L15.3069 8.40719L8.39049 9.91229H2.62808L1 36.3601Z" stroke="#D8203B" stroke-width="2" stroke-miterlimit="10" stroke-linecap="round" stroke-linejoin="round"/>
<path d="M75.3088 37.6245C75.3088 37.6245 74.3413 39.6068 68.6916 39.4865C63.0418 39.3624 60.3802 39.2421 59.3854 39.9753C58.3868 40.7045 57.1706 42.167 55.8417 41.3136C54.5128 40.4602 54.7499 38.2142 55.6202 36.806C57.1706 34.2924 57.3688 31.833 57.3688 31.833" stroke="#D8203B" stroke-width="2" stroke-miterlimit="10" stroke-linecap="round" stroke-linejoin="round"/>
<path d="M55.6168 36.8066C54.3967 38.9983 46.9285 49.0026 46.9285 49.0026" stroke="#D8203B" stroke-width="2" stroke-miterlimit="10" stroke-linecap="round" stroke-linejoin="round"/>
<path d="M47.7562 24.9945C47.7562 24.9945 43.5791 21.4413 44.2435 23.633C44.908 25.8247 46.3146 33.4665 45.316 36.05C44.3174 38.6335 39.9771 46.9775 38.6521 48.4167" stroke="#D8203B" stroke-width="2" stroke-miterlimit="10" stroke-linecap="round" stroke-linejoin="round"/>
<path d="M26.8047 18.1592V22.5659V23.4037C26.8047 26.4489 30.6826 25.8398 33.896 26.4062C37.1094 26.9725 38.9901 30.4676 40.8746 32.1744C42.7591 33.8812 45.4402 33.7571 45.4402 33.7571" stroke="#D8203B" stroke-width="2" stroke-miterlimit="10" stroke-linecap="round" stroke-linejoin="round"/>
<path d="M26.8046 22.5663C26.8046 22.5663 23.1171 26.4881 17.0944 26.4105C11.0716 26.3291 3.80159 24.0986 2.25122 22.2715" stroke="#D8203B" stroke-width="2" stroke-miterlimit="10" stroke-linecap="round" stroke-linejoin="round"/>
<path d="M2.83813 18.5702L11.5342 18.2172C12.3463 18.1785 13.139 17.9729 13.8617 17.6043L30.9508 8.94615C30.9508 8.94615 34.067 7.80181 34.4323 9.41164" stroke="#D8203B" stroke-width="2" stroke-miterlimit="10" stroke-linecap="round" stroke-linejoin="round"/>
<path d="M34.8596 12.9648C34.8596 12.9648 19.9699 20.1024 18.5866 21.1343C17.2072 22.1661 17.281 24.5944 17.0945 26.4099" stroke="#D8203B" stroke-width="2" stroke-miterlimit="10" stroke-linecap="round" stroke-linejoin="round"/>
<path d="M2.60864 28.1172C2.60864 28.1172 11.9925 32.1825 14.2461 33.7652C16.4998 35.3479 16.7213 35.8328 17.2769 38.7576C17.8326 41.6825 20.3932 47.3654 22.0641 48.2808" stroke="#D8203B" stroke-width="2" stroke-miterlimit="10" stroke-linecap="round" stroke-linejoin="round"/>
<path d="M1 47.3458V52.346L46.9283 53.8899C46.9283 53.8899 76.1173 55.523 76.1173 46.248" stroke="#D8203B" stroke-width="2" stroke-miterlimit="10" stroke-linecap="round" stroke-linejoin="round"/>
</svg>
