<svg width="38" height="64" viewBox="0 0 38 64" fill="none" xmlns="http://www.w3.org/2000/svg">
<path d="M37.1331 41.4739C37.2851 41.4739 37.4335 41.399 37.5218 41.2599C37.6596 41.0424 37.5996 40.7536 37.384 40.6145L34.4262 38.6855C34.3873 37.5409 34.3096 36.375 34.2071 35.1876L36.3062 36.5568C36.3839 36.6067 36.4723 36.6317 36.5571 36.6317C36.709 36.6317 36.8575 36.5568 36.9458 36.4178C37.0836 36.2003 37.0236 35.9114 36.808 35.7724L34.0975 34.0038C33.9597 32.6168 33.7972 31.2012 33.6205 29.7571L36.1189 31.3902C36.1966 31.4401 36.285 31.4651 36.3698 31.4651C36.5218 31.4651 36.6702 31.3902 36.7585 31.2511C36.8963 31.0336 36.8363 30.7448 36.6207 30.6057L33.4685 28.5484C33.4544 28.4378 33.4403 28.3308 33.4297 28.2203C33.3095 27.2433 33.1858 26.2663 33.0727 25.2858L34.9951 26.6586C35.0764 26.7156 35.1683 26.7441 35.2637 26.7441C35.4086 26.7441 35.5535 26.6764 35.6418 26.548C35.7903 26.3376 35.7408 26.0453 35.5323 25.8955L32.9314 24.0378C32.7759 22.665 32.6381 21.2922 32.5285 19.9195L34.299 21.4277C34.3873 21.5026 34.4933 21.5383 34.5958 21.5383C34.7266 21.5383 34.8573 21.4812 34.9492 21.3707C35.1153 21.1746 35.0906 20.8786 34.8927 20.711L32.4296 18.6144C32.3448 17.3094 32.2918 16.0079 32.2882 14.7065L34.2318 16.4287C34.3202 16.5071 34.4297 16.5463 34.5357 16.5463C34.663 16.5463 34.7937 16.4929 34.8856 16.3859C35.0552 16.1933 35.034 15.8974 34.8432 15.7262L32.2953 13.4727C32.32 12.2176 32.3872 10.9697 32.5144 9.7288L34.723 11.615C34.8114 11.6899 34.9174 11.7256 35.0234 11.7256C35.1542 11.7256 35.2849 11.6685 35.3768 11.5616C35.5429 11.3654 35.5181 11.0695 35.3238 10.9019L32.6487 8.61632C32.79 7.55732 32.9773 6.50545 33.2176 5.46428L35.6948 7.6322C35.7832 7.70708 35.8892 7.7463 35.9987 7.7463C36.1295 7.7463 36.2567 7.69281 36.3486 7.58584C36.5147 7.38973 36.497 7.09735 36.3027 6.9262L33.4721 4.45163C33.723 3.50673 34.0198 2.5654 34.3732 1.63832C34.61 1.01433 34.299 0.319031 33.6841 0.0801321C33.0657 -0.158767 32.3766 0.155011 32.1398 0.775436C31.896 1.41725 31.6804 2.06264 31.4825 2.71159L29.6237 1.08565C29.4294 0.918062 29.1361 0.939456 28.97 1.132C28.8039 1.32811 28.8215 1.6205 29.0159 1.79165L31.1963 3.69928C30.9206 4.72262 30.6945 5.75666 30.5142 6.79783L28.5742 5.1398C28.3798 4.97222 28.0865 4.99718 27.9204 5.19329C27.7543 5.3894 27.7791 5.68535 27.9734 5.85293L30.3411 7.87823C30.1715 9.05846 30.0584 10.2494 29.9877 11.4403L28.1925 9.85004C28.0017 9.67889 27.7084 9.70028 27.5388 9.89282C27.3691 10.0854 27.3903 10.3813 27.5812 10.5525L29.9347 12.6348C29.8923 13.922 29.8923 15.2128 29.9347 16.4964L28.1325 14.9596C27.9381 14.792 27.6448 14.817 27.4787 15.0167C27.3126 15.2128 27.3373 15.5087 27.5352 15.6763L29.9877 17.7658C30.0619 19.2491 30.1785 20.7253 30.3199 22.1837L28.3056 20.7467C28.0971 20.5969 27.8073 20.6469 27.6589 20.8572C27.5105 21.0676 27.56 21.36 27.7685 21.5097L30.4436 23.4209C30.5673 24.5762 30.7015 25.7172 30.8394 26.8404L29.1926 25.7671C28.977 25.6281 28.6908 25.6887 28.553 25.9062C28.4152 26.1237 28.4752 26.4125 28.6908 26.5516L30.9878 28.0527C31.009 28.2096 31.0267 28.3701 31.0479 28.527C31.2069 29.8177 31.3624 31.08 31.5037 32.3244L29.3799 30.9373C29.1643 30.7983 28.8781 30.8589 28.7403 31.0764C28.6025 31.2939 28.6625 31.5827 28.8781 31.7218L31.6345 33.5224C31.7617 34.7348 31.8677 35.9186 31.9419 37.0774L29.9524 35.7795C29.7368 35.6404 29.4506 35.7011 29.3127 35.9186C29.1749 36.1361 29.235 36.4249 29.4506 36.564L32.002 38.2291C32.0303 38.9066 32.0515 39.5734 32.0515 40.2294C32.0515 40.8035 32.0409 41.3847 32.0161 41.9695L29.9524 40.6217C29.7368 40.4826 29.4506 40.5432 29.3127 40.7607C29.1749 40.9782 29.235 41.2671 29.4506 41.4061L31.9596 43.0428C31.8571 44.5546 31.6627 46.0771 31.3376 47.5391L29.5389 46.0415C29.341 45.8775 29.0512 45.906 28.8852 46.1057C28.7226 46.3053 28.7509 46.5977 28.9488 46.7617L31.0938 48.5481C30.6874 50.0564 30.1326 51.4791 29.3834 52.7413L27.3585 50.7802C27.1748 50.6019 26.8815 50.6091 26.7048 50.7945C26.5281 50.9799 26.5352 51.2759 26.7189 51.4541L28.8675 53.5329C27.977 54.7987 26.8567 55.8577 25.4538 56.6137L23.4289 54.3102C23.2593 54.1177 22.966 54.0999 22.7752 54.271C22.5843 54.4422 22.5667 54.7381 22.7363 54.9307L24.5774 57.0237C23.2734 57.5657 21.7574 57.8723 19.987 57.8723H18.7254L18.7501 54.624C18.7537 54.3673 18.5452 54.1569 18.2907 54.1533H18.2872C18.0328 54.1533 17.8278 54.3602 17.8243 54.6169L17.7995 57.8723H17.4285C15.7146 57.8723 14.2375 57.5835 12.9617 57.0736L14.8453 54.9307C15.0149 54.7381 14.9972 54.4422 14.8064 54.271C14.6156 54.0999 14.3223 54.1177 14.1526 54.3102L12.0783 56.6707C10.6577 55.9326 9.52333 54.8843 8.61867 53.6292L10.8627 51.4541C11.0464 51.2759 11.0535 50.9799 10.8768 50.7945C10.7001 50.6091 10.4068 50.6019 10.223 50.7802L8.09567 52.8412C7.33236 51.5861 6.76341 50.1669 6.34996 48.6622L8.62927 46.7653C8.82717 46.6013 8.85544 46.3053 8.69288 46.1092C8.53033 45.9095 8.23702 45.881 8.03913 46.045L6.10259 47.6603C5.77041 46.1948 5.56898 44.6687 5.46297 43.1497L8.12747 41.4097C8.34303 41.2706 8.40311 40.9818 8.26529 40.7643C8.12747 40.5468 7.8377 40.4862 7.62567 40.6252L5.40289 42.0765C5.37816 41.456 5.36402 40.8392 5.36402 40.233C5.36402 39.6126 5.38169 38.9815 5.40996 38.3432L8.13101 36.5675C8.34657 36.4285 8.40664 36.1396 8.26882 35.9221C8.131 35.7046 7.84123 35.644 7.6292 35.7831L5.47003 37.1915C5.54071 36.0362 5.64673 34.8489 5.77394 33.6401L8.70702 31.7254C8.92258 31.5863 8.98266 31.2975 8.84484 31.08C8.70702 30.8625 8.41724 30.8018 8.20522 30.9409L5.9047 32.4421C6.04958 31.162 6.2086 29.8605 6.37469 28.5305C6.38883 28.4129 6.40296 28.2916 6.42063 28.174L8.89785 26.5587C9.11341 26.4197 9.17348 26.1308 9.03566 25.9133C8.89784 25.6958 8.60807 25.6352 8.39604 25.7743L6.57259 26.9652C6.71041 25.842 6.84469 24.7046 6.96838 23.5564L9.82017 21.5204C10.0287 21.3707 10.0781 21.0783 9.92972 20.8679C9.7813 20.6575 9.49153 20.6076 9.28303 20.7574L7.09206 22.3227C7.23341 20.8715 7.35356 19.4024 7.42777 17.9227L10.0534 15.687C10.2478 15.5194 10.2725 15.2271 10.1099 15.0274C9.94386 14.8313 9.65408 14.8063 9.45619 14.9703L7.48432 16.6497C7.52672 15.3625 7.53732 14.0718 7.49492 12.781L10.0039 10.5596C10.1948 10.3885 10.216 10.0925 10.0463 9.89996C9.87671 9.70741 9.58694 9.68602 9.39258 9.85717L7.44191 11.5865C7.37477 10.392 7.26522 9.19752 7.09913 8.01372L9.61521 5.86363C9.80957 5.69605 9.83431 5.40366 9.66822 5.20398C9.50213 5.00787 9.21236 4.98291 9.01446 5.1505L6.93304 6.92976C6.75635 5.88859 6.53372 4.85098 6.26161 3.82407L8.57627 1.79878C8.77063 1.63119 8.79183 1.33524 8.62221 1.13913C8.45612 0.943022 8.16281 0.921628 7.96845 1.09278L5.98244 2.83282C5.77748 2.14465 5.54778 1.46004 5.29334 0.782567C5.05658 0.162142 4.36748 -0.151636 3.74906 0.0872634C3.13064 0.315466 2.81967 1.01433 3.05643 1.63476C3.42395 2.60105 3.72786 3.57804 3.98936 4.56573L1.29305 6.9262C1.09869 7.09378 1.07749 7.38973 1.24711 7.58584C1.33899 7.69281 1.46621 7.7463 1.59696 7.7463C1.70298 7.7463 1.81253 7.70708 1.90087 7.6322L4.2438 5.58551C4.48056 6.63025 4.66432 7.68568 4.80214 8.74468L2.27546 10.9055C2.0811 11.0731 2.05636 11.3654 2.22245 11.5651C2.31433 11.6757 2.44508 11.7291 2.57583 11.7291C2.68185 11.7291 2.78786 11.6935 2.87621 11.6186L4.93289 9.86073C5.05658 11.1051 5.12372 12.3603 5.14139 13.6189L2.75606 15.7298C2.56523 15.901 2.54403 16.1969 2.71365 16.3895C2.80553 16.4964 2.93275 16.5499 3.0635 16.5499C3.17305 16.5499 3.27906 16.5107 3.36741 16.4322L5.14846 14.8562C5.13786 16.1541 5.08485 17.4592 4.9965 18.7642L2.70658 20.7146C2.51222 20.8822 2.48749 21.1746 2.65004 21.3742C2.74192 21.4848 2.87267 21.5418 3.00343 21.5418C3.10944 21.5418 3.21545 21.5062 3.30027 21.4313L4.89402 20.0728C4.78447 21.4384 4.64312 22.8076 4.48763 24.1697L2.06343 25.8991C1.85493 26.0488 1.80546 26.3412 1.95388 26.5516C2.04576 26.6728 2.18711 26.7406 2.332 26.7406C2.42388 26.7406 2.51929 26.712 2.60057 26.655L4.34274 25.4106C4.22966 26.3483 4.11658 27.2861 3.99996 28.2203C3.98229 28.3701 3.96463 28.5163 3.94696 28.6625L0.971476 30.6057C0.755913 30.7448 0.695838 31.0336 0.833657 31.2511C0.922003 31.3902 1.07042 31.4651 1.22238 31.4651C1.30719 31.4651 1.39554 31.4401 1.47328 31.3902L3.795 29.8748C3.61831 31.3189 3.45576 32.7309 3.31794 34.1179L0.78065 35.7724C0.565086 35.9114 0.505011 36.2003 0.642831 36.4178C0.731176 36.5568 0.879597 36.6317 1.03155 36.6317C1.11636 36.6317 1.20471 36.6067 1.28245 36.5568L3.21546 35.2981C3.11297 36.4855 3.03523 37.6515 3.00343 38.7925L0.215238 40.6145C-0.000325553 40.7536 -0.0604006 41.0424 0.0774186 41.2599C0.165764 41.399 0.314185 41.4739 0.466139 41.4739C0.550951 41.4739 0.639297 41.4489 0.717041 41.399L2.98576 39.9192C2.98576 40.0191 2.98222 40.1225 2.98222 40.2223C2.98222 41.3883 3.02463 42.5008 3.10944 43.5705L0.211704 45.4603C-0.00385937 45.5993 -0.0639344 45.8881 0.0738848 46.1057C0.16223 46.2447 0.310651 46.3196 0.462605 46.3196C0.547417 46.3196 0.635763 46.2946 0.713507 46.2447L3.19779 44.6223C3.37801 46.3303 3.67132 47.9063 4.07064 49.3468L1.22945 51.7144C1.03155 51.8785 1.00328 52.1744 1.16584 52.3705C1.25772 52.4811 1.38847 52.5417 1.52275 52.5417C1.62523 52.5417 1.73125 52.506 1.81606 52.4347L4.35688 50.3167C4.87282 51.9105 5.53364 53.3225 6.32875 54.5456L3.84801 56.9488C3.66425 57.1271 3.65718 57.4231 3.83387 57.6085C3.92575 57.7047 4.0459 57.7511 4.16959 57.7511C4.2862 57.7511 4.39929 57.7083 4.49117 57.6192L6.87296 55.3122C7.87657 56.6493 9.06747 57.7226 10.4421 58.5284L8.29356 60.9709C8.12394 61.1634 8.14161 61.4594 8.33243 61.6305C8.42078 61.709 8.53033 61.7482 8.63988 61.7482C8.76709 61.7482 8.89431 61.6947 8.98619 61.5913L11.2832 58.9777C13.0678 59.8334 15.1209 60.2756 17.4356 60.2756H17.7889L17.7642 63.5239C17.7607 63.7806 17.9692 63.991 18.2236 63.9946H18.2271C18.4816 63.9946 18.6865 63.7878 18.6901 63.531L18.7148 60.2756H19.9941C22.3582 60.2756 24.4502 59.8156 26.2595 58.9242L28.606 61.5949C28.6979 61.6983 28.8251 61.7518 28.9523 61.7518C29.0618 61.7518 29.1714 61.7125 29.2597 61.6341C29.4506 61.4629 29.4682 61.167 29.2986 60.9744L27.0935 58.4678C28.4505 57.6548 29.6308 56.5709 30.6238 55.2266L33.101 57.6263C33.1894 57.7119 33.306 57.7582 33.4226 57.7582C33.5427 57.7582 33.6664 57.7119 33.7583 57.6156C33.935 57.4302 33.9279 57.1342 33.7442 56.956L31.1645 54.4564C31.9525 53.2298 32.5957 51.8107 33.1045 50.2169L35.7761 52.4418C35.8645 52.5131 35.9669 52.5488 36.0694 52.5488C36.2037 52.5488 36.3345 52.4917 36.4263 52.3776C36.5889 52.178 36.5606 51.8856 36.3627 51.7216L33.3873 49.2434C33.7795 47.8029 34.0622 46.2305 34.2389 44.5296L36.8787 46.2518C36.9564 46.3018 37.0448 46.3267 37.1296 46.3267C37.2815 46.3267 37.4299 46.2518 37.5183 46.1128C37.6561 45.8953 37.596 45.6065 37.3805 45.4674L34.3308 43.4778C34.4085 42.4402 34.4509 41.3598 34.4509 40.233C34.4509 40.0975 34.4474 39.9585 34.4439 39.823L36.8751 41.4097C36.9564 41.4525 37.0448 41.4739 37.1331 41.4739Z" fill="#D8203B"/>
</svg>
