<svg width="160" height="46" viewBox="0 0 160 46" fill="none" xmlns="http://www.w3.org/2000/svg">
<path d="M153.758 46H5.45451C2.43241 46 0 43.5673 0 40.5449V5.45513C0 2.43269 2.43241 0 5.45451 0H153.758C156.78 0 159.213 2.43269 159.213 5.45513V40.6186C159.213 43.5673 156.78 46 153.758 46Z" fill="black"/>
<path d="M52.776 12.8269L52.1126 15.0385H50.6384L53.1446 7.2981H54.9873L57.4934 15.0385H55.9455L55.2084 12.8269H52.776ZM55.061 11.7949L54.4713 9.87822C54.3239 9.43592 54.1765 8.84617 54.1028 8.40386C53.9554 8.84617 53.8817 9.3622 53.7342 9.87822L53.0708 11.7949H55.061Z" fill="white"/>
<path d="M59.6309 9.43579L60.5154 12.3108C60.6628 12.8268 60.8102 13.2691 60.8839 13.7114C60.9577 13.2691 61.1051 12.8268 61.2525 12.3108L62.137 9.43579H63.6112L61.4736 15.0384H60.0731L58.0093 9.43579H59.6309Z" fill="white"/>
<path d="M69.3607 13.7114C69.3607 14.2274 69.3607 14.7435 69.4344 15.0383H68.1814L68.1077 14.4486C67.7391 14.8909 67.2232 15.1858 66.4861 15.1858C65.3804 15.1858 64.717 14.3749 64.717 13.4903C64.717 12.0896 65.9701 11.3524 68.034 11.3524V11.2787C68.034 10.9101 67.8865 10.3204 66.9283 10.3204C66.4124 10.3204 65.8227 10.4678 65.4541 10.7627L65.1593 9.87809C65.6016 9.65693 66.2649 9.36206 67.1494 9.36206C68.9185 9.36206 69.4344 10.4678 69.4344 11.721V13.7114H69.3607ZM67.9603 12.3108C66.9283 12.3108 65.9701 12.5319 65.9701 13.3428C65.9701 13.8589 66.3386 14.1537 66.7809 14.1537C67.3706 14.1537 67.7391 13.7851 67.8865 13.4165C67.8865 13.3428 67.8865 13.1954 67.8865 13.1217V12.3108H67.9603Z" fill="white"/>
<path d="M72.0142 8.62499C71.5719 8.62499 71.2034 8.2564 71.2034 7.88781C71.2034 7.44551 71.4982 7.15063 72.0142 7.15063C72.5301 7.15063 72.825 7.51922 72.825 7.88781C72.825 8.2564 72.5301 8.62499 72.0142 8.62499ZM71.3508 15.0385V9.43589H72.7513V15.0385H71.3508Z" fill="white"/>
<path d="M74.8152 6.85571H76.2157V15.0384H74.8152V6.85571Z" fill="white"/>
<path d="M82.6283 13.7114C82.6283 14.2274 82.6283 14.7435 82.702 15.0383H81.449L81.3753 14.4486C81.0067 14.8909 80.4907 15.1858 79.7536 15.1858C78.648 15.1858 77.9846 14.3749 77.9846 13.4903C77.9846 12.0896 79.2377 11.3524 81.3015 11.3524V11.2787C81.3015 10.9101 81.1541 10.3204 80.1959 10.3204C79.6799 10.3204 79.0903 10.4678 78.7217 10.7627L78.4269 9.87809C78.8691 9.65693 79.5325 9.36206 80.417 9.36206C82.1861 9.36206 82.702 10.4678 82.702 11.721V13.7114H82.6283ZM81.2278 12.3108C80.1959 12.3108 79.2377 12.5319 79.2377 13.3428C79.2377 13.8589 79.6062 14.1537 80.0485 14.1537C80.6382 14.1537 81.0067 13.7851 81.1541 13.4165C81.1541 13.3428 81.1541 13.1954 81.1541 13.1217V12.3108H81.2278Z" fill="white"/>
<path d="M84.6184 6.85571H86.0189V10.173C86.3874 9.65699 86.9771 9.28841 87.7879 9.28841C89.1884 9.28841 90.1466 10.3942 90.1466 12.1634C90.1466 14.1538 88.8936 15.1858 87.6405 15.1858C86.9034 15.1858 86.24 14.891 85.8715 14.2275L85.7978 15.0384H84.6184C84.6184 14.6698 84.6921 14.0064 84.6921 13.4903V6.85571H84.6184ZM86.0189 12.7531C86.0189 12.9006 86.0189 12.9743 86.0189 13.1217C86.1663 13.7115 86.6823 14.0801 87.2719 14.0801C88.1565 14.0801 88.6724 13.3429 88.6724 12.2371C88.6724 11.2788 88.2302 10.4679 87.2719 10.4679C86.6823 10.4679 86.1663 10.9102 86.0189 11.4999C86.0189 11.5737 85.9452 11.7211 85.9452 11.8685V12.7531H86.0189Z" fill="white"/>
<path d="M91.842 6.85571H93.2425V15.0384H91.842V6.85571Z" fill="white"/>
<path d="M96.2647 12.6057C96.2647 13.6377 97.0755 14.08 97.9601 14.08C98.6234 14.08 99.0657 14.0063 99.508 13.8589L99.7291 14.8172C99.2131 15.0383 98.5497 15.1858 97.7389 15.1858C95.8962 15.1858 94.8643 14.08 94.8643 12.3845C94.8643 10.8364 95.8225 9.36206 97.5915 9.36206C99.4342 9.36206 100.024 10.8364 100.024 12.0896C100.024 12.3845 100.024 12.5319 99.9502 12.6794H96.2647V12.6057ZM98.7709 11.6473C98.7709 11.1313 98.5497 10.2467 97.5915 10.2467C96.707 10.2467 96.3385 11.0576 96.2647 11.6473H98.7709Z" fill="white"/>
<path d="M107.1 15.1858C105.552 15.1858 104.299 14.08 104.299 12.3108C104.299 10.4678 105.478 9.36206 107.174 9.36206C108.869 9.36206 109.975 10.5415 109.975 12.2371C109.975 14.2274 108.501 15.1858 107.1 15.1858ZM107.1 14.1537C107.911 14.1537 108.501 13.3428 108.501 12.2371C108.501 11.3524 108.132 10.3204 107.174 10.3204C106.142 10.3204 105.773 11.2787 105.773 12.2371C105.7 13.3428 106.289 14.1537 107.1 14.1537Z" fill="white"/>
<path d="M111.596 11.1313C111.596 10.4678 111.596 9.95179 111.522 9.43577H112.776L112.849 10.2467C113.07 9.80436 113.734 9.28833 114.618 9.28833C115.576 9.28833 116.608 9.95179 116.608 11.721V15.0383H115.208V11.8685C115.208 11.0576 114.913 10.4678 114.102 10.4678C113.513 10.4678 113.144 10.8364 112.997 11.2787C112.923 11.4262 112.923 11.5736 112.923 11.721V15.0383H111.522V11.1313H111.596Z" fill="white"/>
<path d="M123.242 7.96143V9.43578H124.569V10.4678H123.242V12.9005C123.242 13.564 123.39 13.9326 123.979 13.9326C124.2 13.9326 124.348 13.9326 124.495 13.8589V14.9646C124.274 15.0383 123.906 15.1121 123.463 15.1121C122.947 15.1121 122.505 14.9646 122.21 14.6698C121.915 14.3749 121.768 13.8589 121.768 13.1217V10.4678H120.957V9.43578H121.768V8.40373L123.242 7.96143Z" fill="white"/>
<path d="M126.117 6.85571H127.517V10.173C127.665 9.87815 127.96 9.65699 128.255 9.50956C128.549 9.36212 128.844 9.28841 129.213 9.28841C130.171 9.28841 131.203 9.95187 131.203 11.7211V15.0384H129.802V11.8685C129.802 11.0576 129.508 10.4679 128.697 10.4679C128.181 10.4679 127.739 10.8365 127.591 11.2788C127.517 11.4262 127.517 11.5737 127.517 11.7211V15.1121H126.117V6.85571Z" fill="white"/>
<path d="M134.225 12.6057C134.225 13.6377 135.036 14.08 135.92 14.08C136.584 14.08 137.026 14.0063 137.468 13.8589L137.689 14.8172C137.173 15.0383 136.51 15.1858 135.699 15.1858C133.856 15.1858 132.824 14.08 132.824 12.3845C132.824 10.8364 133.783 9.36206 135.552 9.36206C137.394 9.36206 137.984 10.8364 137.984 12.0896C137.984 12.3845 137.984 12.5319 137.91 12.6794H134.225V12.6057ZM136.657 11.6473C136.657 11.1313 136.436 10.2467 135.478 10.2467C134.593 10.2467 134.225 11.0576 134.151 11.6473H136.657Z" fill="white"/>
<path d="M35.2333 22.5578C35.2333 18.7245 38.4028 16.8815 38.5502 16.7341C36.7812 14.0802 33.9802 13.7854 32.9483 13.7116C30.5896 13.4905 28.3046 15.1123 27.1252 15.1123C25.8721 15.1123 24.1031 13.7116 22.113 13.7854C19.5331 13.8591 17.1744 15.3334 15.8476 17.6187C13.1204 22.2629 15.1843 29.1924 17.7641 32.952C19.0909 34.795 20.5651 36.8591 22.5552 36.7854C24.4717 36.7116 25.2088 35.5322 27.5675 35.5322C29.8525 35.5322 30.5896 36.7854 32.5797 36.7116C34.6436 36.7116 35.9704 34.8687 37.2234 32.952C38.6976 30.8142 39.2873 28.7501 39.361 28.6027C39.2136 28.6764 35.2333 27.1283 35.2333 22.5578Z" fill="white"/>
<path d="M31.4004 11.279C32.4323 9.95204 33.1694 8.1828 32.9483 6.41357C31.4741 6.48729 29.5577 7.44563 28.452 8.69883C27.4938 9.8046 26.6093 11.6475 26.8304 13.4168C28.5995 13.4905 30.2948 12.5322 31.4004 11.279Z" fill="white"/>
<path d="M63.1693 36.4905H60.442L58.9678 31.8462H53.8082L52.4077 36.4905H49.7542L54.9138 20.6411H58.0833L63.1693 36.4905ZM58.5256 29.8559L57.1988 25.7277C57.0514 25.2853 56.7566 24.327 56.388 22.7789H56.3143C56.1669 23.4424 55.872 24.4744 55.5772 25.7277L54.2504 29.8559H58.5256Z" fill="white"/>
<path d="M76.2896 30.6667C76.2896 32.5834 75.7737 34.1315 74.7417 35.2372C73.7835 36.2693 72.6041 36.7116 71.2774 36.7116C69.8032 36.7116 68.6975 36.1956 68.0342 35.0898H67.9604V41.061H65.4543V28.8238C65.4543 27.5706 65.4543 26.3911 65.3806 25.0642H67.5919L67.7393 26.8334H67.813C68.6238 25.5065 69.9506 24.7693 71.6459 24.7693C72.9727 24.7693 74.0783 25.2853 75.0366 26.3911C75.7737 27.4969 76.2896 28.8975 76.2896 30.6667ZM73.7098 30.7404C73.7098 29.6347 73.4887 28.7501 72.9727 28.0129C72.4567 27.2757 71.7196 26.9071 70.7614 26.9071C70.1717 26.9071 69.5821 27.1283 69.0661 27.4969C68.5501 27.9392 68.2553 28.4552 68.0342 29.1186C67.9605 29.4135 67.8867 29.7084 67.8867 29.8558V31.7725C67.8867 32.5834 68.1079 33.3206 68.6238 33.8366C69.1398 34.4263 69.8032 34.7212 70.614 34.7212C71.5722 34.7212 72.3093 34.3526 72.8253 33.6154C73.415 32.8783 73.7098 31.9199 73.7098 30.7404Z" fill="white"/>
<path d="M89.3363 30.6667C89.3363 32.5834 88.8203 34.1315 87.7884 35.2372C86.8301 36.2693 85.7245 36.7116 84.324 36.7116C82.8498 36.7116 81.7442 36.1956 81.0808 35.0898H81.0071V41.061H78.501V28.8238C78.501 27.5706 78.501 26.3911 78.4272 25.0642H80.6385L80.7859 26.8334H80.8597C81.6705 25.5065 82.9972 24.7693 84.6926 24.7693C86.0193 24.7693 87.125 25.2853 88.0832 26.3911C88.894 27.4969 89.3363 28.8975 89.3363 30.6667ZM86.7564 30.7404C86.7564 29.6347 86.5353 28.7501 86.0193 28.0129C85.5034 27.2757 84.7663 26.9071 83.808 26.9071C83.2184 26.9071 82.6287 27.1283 82.1127 27.4969C81.5968 27.9392 81.3019 28.4552 81.1545 29.1186C81.0808 29.4135 81.0071 29.7084 81.0071 29.8558V31.7725C81.0071 32.5834 81.2282 33.3206 81.7442 33.8366C82.2601 34.4263 82.9235 34.7212 83.7343 34.7212C84.6926 34.7212 85.4296 34.3526 85.9456 33.6154C86.5353 32.8783 86.7564 31.9199 86.7564 30.7404Z" fill="white"/>
<path d="M104.004 32.0674C104.004 33.3943 103.562 34.5001 102.604 35.3847C101.572 36.343 100.171 36.7853 98.3287 36.7853C96.6333 36.7853 95.2329 36.4905 94.2009 35.827L94.7906 33.6892C95.8962 34.3526 97.1493 34.7212 98.4761 34.7212C99.4343 34.7212 100.171 34.5001 100.687 34.0578C101.203 33.6155 101.498 33.0257 101.498 32.3623C101.498 31.6988 101.277 31.1828 100.835 30.7405C100.393 30.2982 99.6554 29.9296 98.6235 29.4873C95.8225 28.4552 94.4958 26.9071 94.4958 24.9905C94.4958 23.6635 95.0117 22.6315 95.97 21.8206C96.9282 21.0097 98.2549 20.5674 99.8028 20.5674C101.277 20.5674 102.456 20.7885 103.415 21.3046L102.751 23.3687C101.867 22.8526 100.835 22.6315 99.7291 22.6315C98.8446 22.6315 98.1075 22.8526 97.6653 23.2949C97.223 23.6635 97.0019 24.1796 97.0019 24.6956C97.0019 25.2853 97.223 25.8014 97.739 26.2437C98.1812 26.6123 98.9183 27.0546 100.024 27.4969C101.351 28.0129 102.383 28.6764 103.046 29.4135C103.709 30.0033 104.004 30.9616 104.004 32.0674Z" fill="white"/>
<path d="M112.407 26.9809H109.606V32.5097C109.606 33.9104 110.122 34.6476 111.08 34.6476C111.523 34.6476 111.891 34.5738 112.186 34.5001L112.26 36.4168C111.744 36.6379 111.08 36.7117 110.27 36.7117C109.238 36.7117 108.501 36.4168 107.911 35.827C107.321 35.2373 107.1 34.2052 107.1 32.7309V26.9809H105.405V25.0642H107.1V23.0001L109.606 22.2629V25.0642H112.407V26.9809Z" fill="white"/>
<path d="M124.938 30.6667C124.938 32.436 124.422 33.8366 123.464 35.0161C122.432 36.1956 121.031 36.7853 119.262 36.7853C117.567 36.7853 116.24 36.1956 115.282 35.0898C114.324 33.984 113.808 32.5834 113.808 30.8879C113.808 29.1187 114.324 27.6443 115.356 26.5385C116.388 25.4328 117.788 24.843 119.484 24.843C121.179 24.843 122.506 25.4328 123.538 26.5385C124.496 27.5706 124.938 28.9712 124.938 30.6667ZM122.358 30.7405C122.358 29.7084 122.137 28.8238 121.695 28.0129C121.179 27.1283 120.442 26.6122 119.41 26.6122C118.378 26.6122 117.641 27.0546 117.125 28.0129C116.683 28.7501 116.461 29.7084 116.461 30.7405C116.461 31.7725 116.683 32.6571 117.125 33.468C117.641 34.3526 118.452 34.7949 119.41 34.7949C120.368 34.7949 121.105 34.3526 121.695 33.3943C122.137 32.7308 122.358 31.8462 122.358 30.7405Z" fill="white"/>
<path d="M133.193 27.2757C132.972 27.202 132.677 27.202 132.383 27.202C131.498 27.202 130.835 27.5706 130.319 28.2341C129.876 28.8238 129.655 29.561 129.655 30.5193V36.4905H127.149V28.6764C127.149 27.3494 127.149 26.17 127.075 25.0642H129.287L129.36 27.2757H129.434C129.729 26.5385 130.098 25.9488 130.687 25.5065C131.277 25.0642 131.867 24.9167 132.53 24.9167C132.751 24.9167 132.972 24.9167 133.193 24.9905V27.2757Z" fill="white"/>
<path d="M144.545 30.2244C144.545 30.6667 144.545 31.0353 144.471 31.4039H136.879C136.879 32.5097 137.247 33.3943 137.985 33.9841C138.648 34.5001 139.459 34.795 140.491 34.795C141.596 34.795 142.628 34.6475 143.587 34.2789L143.955 36.0482C142.849 36.4905 141.596 36.7853 140.122 36.7853C138.353 36.7853 136.953 36.2693 135.994 35.2373C134.963 34.2052 134.447 32.8046 134.447 31.0353C134.447 29.3398 134.889 27.8655 135.847 26.7597C136.805 25.5065 138.132 24.9167 139.827 24.9167C141.449 24.9167 142.702 25.5065 143.587 26.7597C144.176 27.6443 144.545 28.8238 144.545 30.2244ZM142.112 29.561C142.112 28.8238 141.965 28.1603 141.596 27.6443C141.154 26.9071 140.491 26.6123 139.606 26.6123C138.795 26.6123 138.132 26.9809 137.616 27.6443C137.174 28.1603 136.953 28.8238 136.879 29.6347H142.112V29.561Z" fill="white"/>
</svg>
