<svg width="19" height="18" viewBox="0 0 19 18" fill="none" xmlns="http://www.w3.org/2000/svg">
<path d="M1 1L4.23102 2.26245L5.91073 11.5062H15.8392L18.209 4.0224L6.90571 3.56235" stroke="#626262" stroke-width="1.4" stroke-miterlimit="10" stroke-linecap="round" stroke-linejoin="round"/>
<path d="M6.927 11.5059L6.02295 13.8435H15.7535" stroke="#626262" stroke-width="1.4" stroke-miterlimit="10" stroke-linecap="round" stroke-linejoin="round"/>
<path d="M13.9725 16.9996C14.7288 16.9996 15.3419 16.3865 15.3419 15.6302C15.3419 14.8739 14.7288 14.2607 13.9725 14.2607C13.2161 14.2607 12.603 14.8739 12.603 15.6302C12.603 16.3865 13.2161 16.9996 13.9725 16.9996Z" stroke="#626262" stroke-width="1.4" stroke-miterlimit="10" stroke-linecap="round" stroke-linejoin="round"/>
<path d="M7.68145 16.9996C8.43777 16.9996 9.05089 16.3865 9.05089 15.6302C9.05089 14.8739 8.43777 14.2607 7.68145 14.2607C6.92513 14.2607 6.31201 14.8739 6.31201 15.6302C6.31201 16.3865 6.92513 16.9996 7.68145 16.9996Z" stroke="#626262" stroke-width="1.4" stroke-miterlimit="10" stroke-linecap="round" stroke-linejoin="round"/>
</svg>
