<svg width="44" height="44" viewBox="0 0 44 44" fill="none" xmlns="http://www.w3.org/2000/svg">
<g filter="url(#filter0_b_4596_131)">
<circle cx="22" cy="22" r="22" fill="#F0F0F0"/>
</g>
<path d="M27.7118 23.6439C28.6258 23.6439 29.37 24.3867 29.37 25.3015C29.37 26.2162 28.6259 26.959 27.7095 26.959H15.6605C14.7434 26.959 14 26.2173 14 25.3015C14 24.3869 14.7428 23.6439 15.6582 23.6439C15.7402 23.6439 15.8082 23.5759 15.8082 23.4927V19.8765C15.8082 16.6302 18.4389 14 21.685 14C24.9311 14 27.5618 16.6308 27.5618 19.8765V23.4927C27.5618 23.5775 27.6282 23.6439 27.7118 23.6439ZM27.7118 24.548C27.1289 24.548 26.6576 24.077 26.6576 23.4927V19.8765C26.6576 17.1301 24.4317 14.9041 21.685 14.9041C18.9382 14.9041 16.7124 17.1295 16.7124 19.8765V23.4927C16.7124 24.0751 16.2397 24.548 15.6582 24.548C15.2422 24.548 14.9041 24.8862 14.9041 25.3015C14.9041 25.7175 15.2423 26.0549 15.6605 26.0549H27.7095C28.1269 26.0549 28.4659 25.7165 28.4659 25.3015C28.4659 24.8864 28.1268 24.548 27.7118 24.548ZM19.1233 26.959H20.0275C20.0275 27.8745 20.7696 28.6166 21.685 28.6166C22.6004 28.6166 23.3425 27.8745 23.3425 26.959H24.2467C24.2467 28.3738 23.0998 29.5207 21.685 29.5207C20.2702 29.5207 19.1233 28.3738 19.1233 26.959Z" fill="#626262" stroke="#626262" stroke-width="0.4"/>
<defs>
<filter id="filter0_b_4596_131" x="-20" y="-20" width="84" height="84" filterUnits="userSpaceOnUse" color-interpolation-filters="sRGB">
<feFlood flood-opacity="0" result="BackgroundImageFix"/>
<feGaussianBlur in="BackgroundImage" stdDeviation="10"/>
<feComposite in2="SourceAlpha" operator="in" result="effect1_backgroundBlur_4596_131"/>
<feBlend mode="normal" in="SourceGraphic" in2="effect1_backgroundBlur_4596_131" result="shape"/>
</filter>
</defs>
</svg>
