<svg width="32" height="24" viewBox="0 0 32 24" fill="none" xmlns="http://www.w3.org/2000/svg">
<path fill-rule="evenodd" clip-rule="evenodd" d="M6.5918 6.02768V3.60645C6.25464 3.65966 5.97984 3.79269 5.78486 4.01428C5.58989 4.23586 5.49219 4.4932 5.49219 4.79461C5.49219 5.08728 5.57201 5.34462 5.74038 5.5396C5.90875 5.74373 6.1927 5.90337 6.5918 6.01853V6.02768Z" fill="#D8213B"/>
<path fill-rule="evenodd" clip-rule="evenodd" d="M20.8787 13.1312C20.8787 12.3417 21.1627 11.7032 21.7214 11.2155C22.0939 10.8875 22.6527 10.6834 23.3889 10.6123V10.0801H24.0454V10.6123C24.6927 10.6742 25.2074 10.8605 25.5799 11.1798C26.0675 11.5789 26.3602 12.1376 26.4579 12.8381L25.3138 13.0065C25.2518 12.572 25.1097 12.2349 24.906 12.0041C24.7018 11.7734 24.4183 11.6229 24.0545 11.5431V14.7447C24.6133 14.8864 24.9858 14.9929 25.1633 15.0727C25.5092 15.2236 25.7931 15.4098 26.006 15.6227C26.2276 15.8443 26.3964 16.1016 26.5115 16.403C26.6267 16.7044 26.689 17.0329 26.689 17.3788C26.689 18.1504 26.4409 18.7889 25.9528 19.3032C25.4651 19.8174 24.8266 20.0927 24.055 20.128V21.2542H23.3985V20.1454C22.8398 20.0744 22.3874 19.9505 22.0416 19.773C21.6957 19.5954 21.3943 19.3028 21.1369 18.9036C20.8796 18.5045 20.7378 18.0169 20.6933 17.4403L21.8108 17.2274C21.8994 17.8215 22.0503 18.2651 22.2719 18.5399C22.5824 18.939 22.9549 19.1518 23.3981 19.1963V15.6576C22.937 15.5691 22.4756 15.3915 21.9966 15.1255C21.642 14.9305 21.3668 14.6553 21.1806 14.3006C20.9856 13.9548 20.8966 13.5557 20.8966 13.1121L20.8787 13.1312ZM28.9585 10.1691C27.5483 8.75895 25.606 7.88965 23.4596 7.88965C19.158 7.88965 15.6816 11.3752 15.6816 15.6676C15.6816 17.814 16.5509 19.7651 17.9611 21.1665C19.3713 22.5767 21.3136 23.446 23.46 23.446C25.6065 23.446 27.5575 22.5767 28.9589 21.1665C30.3691 19.7564 31.2384 17.814 31.2384 15.6676C31.2384 13.5212 30.3691 11.5701 28.9589 10.1687L28.9585 10.1691Z" fill="#D8213B"/>
<path fill-rule="evenodd" clip-rule="evenodd" d="M4.64926 4.85653C4.64926 4.20008 4.87999 3.67709 5.34104 3.26884C5.65159 2.99404 6.11264 2.8344 6.71587 2.77203V2.33759H7.25674V2.77203C7.78888 2.82525 8.21459 2.97616 8.52514 3.24223C8.92425 3.57024 9.16371 4.03171 9.25226 4.61706L8.30313 4.75883C8.24992 4.39506 8.13477 4.12026 7.96597 3.93401C7.7976 3.73903 7.55814 3.61473 7.26546 3.55279V6.1956C7.72651 6.31076 8.03707 6.39973 8.17883 6.4704C8.46278 6.59471 8.69309 6.74519 8.87933 6.93144C9.05686 7.10896 9.19862 7.33055 9.29632 7.57001C9.39402 7.8182 9.43808 8.08427 9.43808 8.37695C9.43808 9.01551 9.23395 9.53892 8.83485 9.96463C8.42702 10.3903 7.9036 10.6211 7.26504 10.6477V11.5789H6.72417V10.6656C6.26313 10.6124 5.89063 10.5059 5.60668 10.355C5.32273 10.2041 5.07454 9.96463 4.86169 9.63662C4.64883 9.30861 4.53367 8.90036 4.49792 8.43058L5.42043 8.25306C5.49152 8.74987 5.61541 9.10449 5.80166 9.33522C6.059 9.66323 6.36913 9.84075 6.7329 9.87609V6.95805C6.35167 6.88696 5.97002 6.73647 5.58007 6.52361C5.2874 6.36397 5.06581 6.13323 4.90617 5.84056C4.74653 5.54788 4.66671 5.2286 4.66671 4.8561L4.64926 4.85653ZM11.3276 2.40869C10.1656 1.24671 8.56048 0.52832 6.77781 0.52832C3.23036 0.52832 0.347656 3.4106 0.347656 6.95848C0.347656 8.73241 1.06604 10.3376 2.22802 11.5083C3.39 12.6702 4.99515 13.3886 6.77781 13.3886C8.55175 13.3886 10.1569 12.6702 11.3276 11.5083C12.4896 10.3463 13.208 8.74114 13.208 6.95848C13.208 5.18454 12.4896 3.57939 11.3276 2.40869Z" fill="#D8213B"/>
<path fill-rule="evenodd" clip-rule="evenodd" d="M21.9971 13.0508C21.9971 13.432 22.1035 13.7426 22.3164 13.9999C22.5292 14.2572 22.8838 14.4609 23.3894 14.6119V11.5342C22.9549 11.5961 22.6178 11.7736 22.3696 12.0484C22.1214 12.3324 21.9971 12.6604 21.9971 13.0416V13.0508Z" fill="#D8213B"/>
<path fill-rule="evenodd" clip-rule="evenodd" d="M5.57171 4.78471C5.57171 5.09526 5.66027 5.36133 5.83778 5.56504C6.01531 5.77789 6.30798 5.94626 6.72454 6.07057V3.53418C6.36992 3.58739 6.08597 3.72916 5.88185 3.95989C5.67772 4.19063 5.57129 4.46542 5.57129 4.78471H5.57171Z" fill="#D8213B"/>
<path fill-rule="evenodd" clip-rule="evenodd" d="M24.0449 15.8271V19.2062C24.4794 19.153 24.8344 18.9668 25.1179 18.6475C25.4019 18.3282 25.5436 17.9291 25.5436 17.4589C25.5436 17.0598 25.4459 16.7318 25.2422 16.4923C25.0381 16.2441 24.6482 16.0313 24.0449 15.8359V15.8271Z" fill="#D8213B"/>
<path fill-rule="evenodd" clip-rule="evenodd" d="M7.26562 7.08203V9.87576C7.62024 9.83128 7.91292 9.68079 8.15238 9.41472C8.38312 9.14865 8.49827 8.82064 8.49827 8.43026C8.49827 8.10225 8.41845 7.82703 8.25008 7.63205C8.08171 7.42792 7.75328 7.25083 7.26562 7.09118V7.08203Z" fill="#D8213B"/>
</svg>
