<svg width="140" height="140" viewBox="0 0 140 140" fill="none" xmlns="http://www.w3.org/2000/svg">
<circle cx="70" cy="70" r="29" fill="#D8213B"/>
<path d="M78.8344 61L61.1055 78.9391" stroke="white" stroke-width="4" stroke-linecap="round" stroke-linejoin="round"/>
<path d="M78.9395 78.834L61.0003 61.1051" stroke="white" stroke-width="4" stroke-linecap="round" stroke-linejoin="round"/>
<path d="M4 41.4H17.2V19.4C17.2 18.8165 17.4318 18.2569 17.8444 17.8444C18.2569 17.4318 18.8165 17.2 19.4 17.2H41.4V4H19.4C15.3157 4 11.3986 5.6225 8.51056 8.51056C5.6225 11.3986 4 15.3157 4 19.4V41.4Z" fill="#3B3B3B" stroke="white" stroke-width="8"/>
<path d="M4 120.6C4 124.684 5.6225 128.601 8.51056 131.489C11.3986 134.377 15.3157 136 19.4 136H41.4V122.8H19.4C18.8165 122.8 18.2569 122.568 17.8444 122.156C17.4318 121.743 17.2 121.183 17.2 120.6V98.5999H4V120.6Z" fill="#3B3B3B" stroke="white" stroke-width="8"/>
<path d="M136.001 120.6V98.5999H122.801V120.6C122.801 121.183 122.569 121.743 122.156 122.156C121.744 122.568 121.184 122.8 120.601 122.8H98.6006V136H120.601C124.685 136 128.602 134.377 131.49 131.489C134.378 128.601 136.001 124.684 136.001 120.6Z" fill="#3B3B3B" stroke="white" stroke-width="8"/>
<path d="M136.001 19.4C136.001 15.3157 134.378 11.3986 131.49 8.51056C128.602 5.6225 124.685 4 120.601 4H98.6006V17.2H120.601C121.184 17.2 121.744 17.4318 122.156 17.8444C122.569 18.2569 122.801 18.8165 122.801 19.4V41.4H136.001V19.4Z" fill="#3B3B3B" stroke="white" stroke-width="8"/>
</svg>
