<svg width="27" height="22" viewBox="0 0 27 22" fill="none" xmlns="http://www.w3.org/2000/svg">
<path d="M14.4998 1V1.12625C16.2244 1.57089 17.4998 3.13829 17.4998 5C17.4998 6.86272 16.2237 8.4292 14.4998 8.87372V21C14.4998 21.5523 14.052 22 13.4998 22C12.9475 22 12.4998 21.5523 12.4998 21V8.87375C10.7751 8.42911 9.49976 6.86171 9.49976 5C9.49976 3.13728 10.7758 1.5708 12.4998 1.12628V1C12.4998 0.447715 12.9475 0 13.4998 0C14.052 0 14.4998 0.447715 14.4998 1ZM11.4998 5C11.4998 6.10254 12.3965 7 13.4998 7C14.6023 7 15.4998 6.10323 15.4998 5C15.4998 3.89746 14.603 3 13.4998 3C12.3972 3 11.4998 3.89677 11.4998 5Z" fill="black"/>
<path d="M5 13.1262C6.72469 13.5709 8 15.1383 8 17C8 18.8627 6.72392 20.4292 5 20.8737V21C5 21.5523 4.55228 22 4 22C3.44772 22 3 21.5523 3 21V20.8737C1.27531 20.4291 0 18.8617 0 17C0 15.1373 1.27608 13.5708 3 13.1263V1C3 0.447715 3.44772 0 4 0C4.55228 0 5 0.447715 5 1V13.1262ZM2 17C2 18.1025 2.89677 19 4 19C5.10254 19 6 18.1032 6 17C6 15.8975 5.10323 15 4 15C2.89746 15 2 15.8968 2 17Z" fill="black"/>
<path d="M23.9993 8.62625C25.724 9.07089 26.9993 10.6383 26.9993 12.5C26.9993 14.3627 25.7232 15.9292 23.9993 16.3737V21C23.9993 21.5523 23.5516 22 22.9993 22C22.447 22 21.9993 21.5523 21.9993 21V16.3738C20.2746 15.9291 18.9993 14.3617 18.9993 12.5C18.9993 10.6373 20.2753 9.0708 21.9993 8.62628V1C21.9993 0.447715 22.447 0 22.9993 0C23.5516 0 23.9993 0.447715 23.9993 1V8.62625ZM20.9993 12.5C20.9993 13.6025 21.896 14.5 22.9993 14.5C24.1018 14.5 24.9993 13.6032 24.9993 12.5C24.9993 11.3975 24.1025 10.5 22.9993 10.5C21.8967 10.5 20.9993 11.3968 20.9993 12.5Z" fill="black"/>
</svg>
