<svg width="121" height="76" viewBox="0 0 121 76" fill="none" xmlns="http://www.w3.org/2000/svg">
<path d="M11.4437 23.8492H0.78512V0.3353H3.51718V21.428H11.4477L11.4437 23.8492ZM15.5081 23.8492H12.9109L18.0022 0.3353H21.7256L26.8804 23.8492H24.081L23.0223 18.8431H16.5311L15.5081 23.8492ZM17.0427 16.4843H22.5107L19.7351 3.38419L17.0427 16.4843ZM31.9401 4.43298L39.1807 23.8492H42.0158V0.3353H39.5217V17.6539L32.9631 0.3353H29.4261V23.8492H31.956L31.9401 4.43298ZM51.8536 23.8492H45.7392V0.3353H51.8536C55.9537 0.3353 57.9323 2.351 57.9323 6.41359V17.7202C57.9323 21.8335 55.9537 23.8492 51.8536 23.8492ZM51.7862 21.428C54.1416 21.428 55.2003 20.387 55.2003 17.8372V6.31611C55.2003 3.76238 54.1416 2.75258 51.7862 2.75258H48.4594V21.428H51.7862ZM66.7828 18.0048V6.17965C66.7828 2.18335 68.9676 0 72.9289 0C76.8902 0 79.1147 2.18335 79.1147 6.17965V18.0048C79.1147 21.966 76.9259 24.1845 72.9289 24.1845C68.932 24.1845 66.7828 21.966 66.7828 18.0048ZM69.5148 18.1725C69.5148 20.5898 70.7441 21.7633 72.9289 21.7633C75.1138 21.7633 76.3787 20.5937 76.3787 18.1725V6.012C76.3787 3.55964 75.1177 2.41728 72.9289 2.41728C70.7401 2.41728 69.5148 3.55964 69.5148 6.012V18.1725ZM85.2291 13.2015H91.6489V10.7803H85.2291V2.75258H93.1596V0.3353H82.4931V23.8492H85.2291V13.2015ZM7.17314 37.6589C3.82647 35.6081 2.81136 34.4657 2.81136 32.3837C2.81136 30.3018 4.04852 29.058 6.03115 29.058C8.14859 29.058 9.31041 30.3368 9.31041 32.4851V33.3233H11.9037V32.5436C11.9037 28.9177 9.85365 26.668 6.03115 26.668C2.20865 26.668 0.0832703 28.9606 0.0832703 32.4695C0.0832703 35.3741 1.19354 37.2534 5.08742 39.6044C8.36668 41.5889 9.358 42.7234 9.358 45.0121C9.358 47.2305 8.06136 48.4742 5.97564 48.4742C3.88991 48.4742 2.62896 47.1954 2.62896 45.0471V43.8034H0V44.9731C0 48.5678 2.11745 50.8486 5.97564 50.8486C9.9052 50.8486 12.0901 48.5327 12.0901 44.9029C12.0901 41.8579 10.9996 39.9748 7.17314 37.6589ZM25.108 44.3415L18.5495 27.0111H14.9807V50.5211H17.5304V31.1088L24.767 50.5211H27.6021V27.0111H25.108V44.3415ZM31.3215 50.5211H42.3211V48.1038H34.0576V39.6044H40.7985V37.2222H34.0576V29.4245H42.3211V27.0111H31.3215V50.5211ZM52.8449 27.0111L57.9998 50.5211H55.2003L54.1416 45.5189H47.6663L46.6433 50.5211H44.046L49.1215 27.0111H52.8449ZM53.638 43.1679L50.8623 30.0678L48.1659 43.1679H53.638ZM73.6149 27.0111H70.7441L63.2616 38.8012V27.0111H60.5296V50.5211H63.2616V42.7234L66.0651 38.5556L70.7798 50.5133H73.718L67.9446 35.842L73.6149 27.0111ZM76.2439 50.5211H87.2435V48.1038H78.9918V39.6044H85.7327V37.2222H78.9918V29.4245H87.2594V27.0111H76.2439V50.5211ZM102.307 50.5211H99.5318C99.2939 49.8154 99.1908 49.1448 99.1908 47.4644V43.7371C99.1908 41.008 98.1321 40.041 95.3643 40.041H92.6997V50.5211H89.9756V27.0111H95.8164C100.02 27.0111 101.899 28.789 101.899 32.5865V33.6392C101.899 36.3917 100.908 38.0058 98.6872 38.6453V38.7076C100.975 39.2106 101.931 40.891 101.931 43.9126V47.5073C101.891 48.5253 102.018 49.5429 102.307 50.5211ZM99.167 34.0953V32.9257C99.167 30.4382 98.1757 29.4167 95.7846 29.4167H92.7076V37.6043H95.3723C97.9695 37.6238 99.167 36.5828 99.167 34.0953ZM120.865 67.1068L115.496 72.877C115.489 72.888 115.479 72.8973 115.468 72.9043L112.831 75.306C112.709 75.4233 112.577 75.529 112.435 75.6218C112.224 75.7548 112 75.8647 111.765 75.9493C111.684 75.9824 111.598 75.9996 111.511 76H111.487C111.37 75.9926 111.257 75.9564 111.158 75.8947C110.92 75.772 110.699 75.62 110.5 75.4425C110.348 75.2937 110.215 75.1275 110.103 74.9473C110.021 74.8166 109.958 74.6748 109.917 74.5262C109.874 74.2922 109.882 74.052 109.939 73.8211C109.997 73.5901 110.102 73.3735 110.25 73.185L111.392 71.2785C111.465 71.1425 111.517 70.9967 111.547 70.8457L112.054 67.7033C112.086 67.5079 112.046 67.3077 111.943 67.138L110.861 65.3913C110.824 65.3335 110.8 65.2687 110.791 65.2013C110.782 65.1338 110.788 65.0653 110.809 65.0002C110.829 64.9352 110.863 64.8752 110.909 64.8243C110.955 64.7734 111.011 64.7327 111.075 64.7051L111.701 64.4283L111.34 58.7126C111.338 58.6997 111.338 58.6865 111.34 58.6736H111.305C111.284 58.668 111.265 58.6573 111.249 58.6424C111.216 58.6144 111.191 58.5785 111.176 58.5382C111.161 58.4978 111.157 58.4544 111.164 58.4121C111.171 58.3697 111.189 58.3299 111.217 58.2965C111.244 58.2631 111.28 58.2372 111.32 58.2213L110.853 50.8564H110.761L110.365 53.1957C110.397 53.2052 110.427 53.2228 110.45 53.2467C110.474 53.2706 110.491 53.3 110.5 53.3322C110.52 53.4179 110.476 53.4959 110.365 53.5661L110.309 53.5934C110.324 53.6298 110.324 53.6701 110.309 53.7065L110.282 53.726L109.092 60.9076C109.277 60.9385 109.46 60.9828 109.639 61.0402C109.709 61.0623 109.773 61.1 109.827 61.1502C109.88 61.2005 109.92 61.262 109.946 61.3301C109.971 61.3981 109.98 61.471 109.972 61.5431C109.965 61.6151 109.94 61.6845 109.901 61.7459C109.901 61.7459 109.389 62.5724 108.961 63.3288C108.584 63.9955 108.588 64.8103 108.961 65.9644C108.989 66.0502 109.025 66.132 109.06 66.2139C109.096 66.2958 109.104 66.3231 109.124 66.3738L109.195 66.5492C109.683 67.6833 110.068 68.8575 110.345 70.0582C110.375 70.1739 110.369 70.2955 110.33 70.4083C110.29 70.5211 110.219 70.6203 110.123 70.6937C109.993 70.8082 109.842 70.8981 109.679 70.9588C109.551 71.0022 109.417 71.0233 109.282 71.0212C109.148 71.0217 109.015 71.0033 108.886 70.9666C108.483 70.8286 108.109 70.6213 107.78 70.3545C107.336 70.0193 106.922 69.6476 106.542 69.2433C105.642 68.2788 104.825 67.242 104.1 66.1437C103.406 65.1184 102.355 63.7849 101.59 62.8141C101.304 62.4476 101.058 62.1357 100.896 61.9174C100.571 61.5299 100.358 61.0642 100.277 60.5684C100.248 60.3159 100.288 60.0601 100.395 59.8287C100.502 59.5972 100.671 59.3987 100.884 59.2545C101.146 59.0765 101.45 58.9652 101.767 58.9305C102.083 58.8958 102.404 58.9388 102.7 59.0557L103.469 58.9543L103.366 58.4513C103.352 58.3836 103.366 58.3132 103.405 58.2555C103.443 58.1977 103.504 58.1574 103.572 58.1433L104.691 57.9211C104.725 57.9131 104.76 57.9121 104.795 57.9181C104.829 57.9241 104.862 57.937 104.892 57.956C104.921 57.975 104.946 57.9997 104.965 58.0285C104.985 58.0574 104.998 58.0898 105.004 58.1238L105.127 58.7087C105.234 58.6892 105.329 58.6697 105.381 58.6541L106.063 58.155C106.166 58.0794 106.296 58.0472 106.423 58.0654C106.487 58.0741 106.548 58.0951 106.603 58.1272C106.658 58.1594 106.706 58.2019 106.745 58.2525C106.893 58.4967 106.949 58.7844 106.903 59.0652C106.858 59.346 106.713 59.602 106.495 59.7886C106.459 59.8315 106.257 60.198 106.439 60.4398C106.701 60.7868 106.764 60.8686 107.597 60.8023H107.752C108.061 59.7652 108.842 56.7826 109.635 53.6987C109.496 53.6441 109.477 53.5583 109.481 53.5076C109.492 53.4654 109.513 53.4265 109.543 53.3939C109.573 53.3614 109.61 53.3362 109.651 53.3205C109.645 53.2988 109.645 53.2759 109.651 53.2542C109.658 53.2231 109.673 53.1946 109.696 53.1718C109.718 53.149 109.747 53.133 109.778 53.1255L110.365 50.8291C106.641 50.7433 104.599 48.4898 104.599 44.9809V43.8112H107.232V45.0549C107.232 47.2032 108.462 48.482 110.579 48.482C112.696 48.482 113.961 47.2383 113.961 45.0199C113.961 42.739 112.97 41.5967 109.691 39.6122C105.797 37.2729 104.671 35.3819 104.671 32.4929C104.671 28.9644 106.82 26.6836 110.646 26.6836C114.473 26.6836 116.523 28.9333 116.523 32.5592V33.3389H113.926V32.4695C113.926 30.3212 112.764 29.0424 110.646 29.0424C108.632 29.0424 107.403 30.3212 107.403 32.3681C107.403 34.415 108.426 35.5925 111.765 37.6433C115.587 39.9592 116.682 41.8423 116.682 44.8951C116.682 48.3573 114.699 50.6186 111.102 50.8213L111.554 57.9913C111.554 57.9913 111.554 57.9913 111.582 57.9913C111.769 57.9367 111.931 58.1784 111.979 58.2837C112.008 58.3247 112.024 58.3737 112.024 58.4241C112.024 58.4744 112.008 58.5234 111.979 58.5644L113.018 63.8395L113.906 63.4497L114.838 62.8609L115.488 62.2215C115.576 62.1355 115.695 62.0857 115.819 62.0821C115.943 62.0784 116.065 62.1213 116.158 62.202L119.517 65.1223C119.525 65.1266 119.532 65.1334 119.537 65.1417L120.853 66.4323C120.945 66.5205 120.998 66.6408 121 66.7671C121.002 66.8934 120.954 67.0154 120.865 67.1068ZM109.996 53.8H109.877C109.155 56.6228 108.37 59.6249 108.013 60.8179C108.279 60.8189 108.544 60.8397 108.807 60.8803L109.996 53.8ZM110.23 52.4081L110.04 53.1645C110.06 53.1739 110.078 53.1857 110.095 53.1996L110.23 52.4081ZM112.768 63.9604L111.745 58.7555C111.737 58.7746 111.724 58.7919 111.709 58.8061C111.683 58.8273 111.651 58.842 111.618 58.849L111.963 64.3074L112.768 63.9604Z" fill="white"/>
</svg>
