<svg width="24" height="22" viewBox="0 0 24 22" fill="none" xmlns="http://www.w3.org/2000/svg">
<path d="M8.1034 1.04688C9.72232 1.20877 11.1793 2.01823 12.2047 3.20543C13.2839 2.01823 14.741 1.20877 16.3599 1.04688C22.4038 0.345348 25.8035 7.68443 21.5944 11.8936L12.6903 20.7976C12.4205 21.0675 11.9888 21.0675 11.719 20.7976L2.86891 11.8936C-1.34026 7.68443 2.05946 0.345348 8.1034 1.04688ZM3.84026 10.9223L12.2047 19.3406L20.623 10.9223C23.9148 7.63046 21.2706 1.85634 16.4678 2.39597C14.9568 2.55786 13.6077 3.42129 12.7983 4.71642C12.4745 5.14813 11.9348 5.20209 11.665 4.71642C10.8556 3.42129 9.50646 2.55786 7.94151 2.39597C3.1927 1.85634 0.494505 7.63046 3.84026 10.9223Z" fill="#8C8C8C" stroke="#8C8C8C" stroke-width="0.5"/>
</svg>
