<svg width="160" height="46" viewBox="0 0 160 46" fill="none" xmlns="http://www.w3.org/2000/svg">
<path d="M154.545 46H6.24187C3.21978 46 0.787354 43.5673 0.787354 40.5449V5.45513C0.787354 2.43269 3.21978 0 6.24187 0H154.545C157.568 0 160 2.43269 160 5.45513V40.6186C160 43.5673 157.568 46 154.545 46Z" fill="black"/>
<path d="M81.057 25.2117C78.256 25.2117 75.971 27.3495 75.971 30.2245C75.971 33.0995 78.256 35.2374 81.057 35.2374C83.858 35.2374 86.143 33.0995 86.143 30.2245C86.143 27.3495 83.858 25.2117 81.057 25.2117ZM81.057 33.3207C79.5091 33.3207 78.1823 32.0675 78.1823 30.2983C78.1823 28.4553 79.5091 27.2758 81.057 27.2758C82.6049 27.2758 83.9317 28.529 83.9317 30.2983C83.9317 32.0675 82.6049 33.3207 81.057 33.3207ZM70.0743 25.2117C67.2733 25.2117 64.9883 27.3495 64.9883 30.2245C64.9883 33.0995 67.2733 35.2374 70.0743 35.2374C72.8752 35.2374 75.1602 33.0995 75.1602 30.2245C75.0865 27.3495 72.8015 25.2117 70.0743 25.2117ZM70.0743 33.3207C68.5264 33.3207 67.1996 32.0675 67.1996 30.2983C67.1996 28.4553 68.5264 27.2758 70.0743 27.2758C71.6222 27.2758 72.949 28.529 72.949 30.2983C72.8752 32.0675 71.5485 33.3207 70.0743 33.3207ZM56.8803 26.7598V28.8976H61.9662C61.8188 30.0771 61.3766 30.9617 60.7869 31.6252C60.0498 32.3624 58.8704 33.1733 56.8066 33.1733C53.6371 33.1733 51.2046 30.6668 51.2046 27.497C51.2046 24.3271 53.6371 21.8207 56.8066 21.8207C58.5019 21.8207 59.7549 22.4842 60.6395 23.3688L62.1136 21.8944C60.8606 20.6412 59.1653 19.7566 56.7329 19.7566C52.384 19.7566 48.7722 23.2951 48.7722 27.5707C48.7722 31.9201 52.384 35.3848 56.7329 35.3848C59.0916 35.3848 60.7869 34.6476 62.1874 33.1733C63.5878 31.7726 64.0301 29.7822 64.0301 28.1604C64.0301 27.6444 63.9564 27.2021 63.8827 26.8335H56.8803V26.7598ZM110.615 28.4553C110.172 27.3495 108.919 25.2117 106.266 25.2117C103.686 25.2117 101.475 27.2758 101.475 30.2245C101.475 33.0258 103.612 35.2374 106.487 35.2374C108.772 35.2374 110.099 33.8367 110.688 33.0258L108.993 31.8463C108.403 32.6572 107.666 33.247 106.487 33.247C105.381 33.247 104.57 32.7309 104.054 31.6989L110.762 28.8976L110.615 28.4553ZM103.76 30.1508C103.686 28.2342 105.234 27.2021 106.413 27.2021C107.298 27.2021 108.035 27.6444 108.256 28.3079L103.76 30.1508ZM98.2313 35.0162H100.443V20.1989H98.2313V35.0162ZM94.6195 26.3912H94.5458C94.0299 25.8015 93.0716 25.2854 91.8923 25.2854C89.3862 25.2854 87.0275 27.497 87.0275 30.372C87.0275 33.1733 89.3125 35.3848 91.8923 35.3848C93.0716 35.3848 94.0299 34.8688 94.5458 34.2053H94.6195V34.9425C94.6195 36.8592 93.5876 37.8912 91.8923 37.8912C90.5655 37.8912 89.681 36.9329 89.3862 36.122L87.4697 36.9329C88.0594 38.2598 89.4599 39.8816 91.966 39.8816C94.5458 39.8816 96.7571 38.3335 96.7571 34.6476V25.5066H94.6195V26.3912ZM92.1134 33.3207C90.5655 33.3207 89.3125 32.0675 89.3125 30.2983C89.3125 28.529 90.5655 27.2021 92.1134 27.2021C93.5876 27.2021 94.8407 28.529 94.8407 30.2983C94.767 32.0675 93.5876 33.3207 92.1134 33.3207ZM121.008 20.1989H115.7V35.0162H117.912V29.4136H121.008C123.44 29.4136 125.872 27.6444 125.872 24.8431C125.872 22.0418 123.44 20.1989 121.008 20.1989ZM121.081 27.3495H117.912V22.263H121.081C122.703 22.263 123.661 23.6636 123.661 24.7694C123.661 25.9489 122.703 27.3495 121.081 27.3495ZM134.718 25.2117C133.096 25.2117 131.474 25.9489 130.737 27.497L132.727 28.3079C133.17 27.497 133.907 27.2021 134.718 27.2021C135.897 27.2021 137.003 27.8656 137.076 29.1188V29.2662C136.708 29.0451 135.823 28.6765 134.791 28.6765C132.654 28.6765 130.516 29.856 130.516 31.9938C130.516 33.9842 132.285 35.2374 134.202 35.2374C135.676 35.2374 136.487 34.5739 137.003 33.763H137.076V34.9425H139.214V29.2662C139.214 26.6861 137.297 25.2117 134.718 25.2117ZM134.496 33.3207C133.759 33.3207 132.727 32.9521 132.727 32.0675C132.727 30.888 133.98 30.5194 135.086 30.5194C136.044 30.5194 136.487 30.7406 137.076 31.0354C136.929 32.3624 135.749 33.3207 134.496 33.3207ZM147.027 25.5066L144.521 31.9201H144.373L141.72 25.5066H139.361L143.342 34.5002L141.057 39.513H143.342L149.459 25.5066H147.027ZM127.052 35.0162H129.263V20.1989H127.052V35.0162Z" fill="white"/>
<path d="M12.6546 8.40405C12.2861 8.77264 12.1387 9.36239 12.1387 10.0996V36.2694C12.1387 37.0066 12.3598 37.5964 12.6546 37.9649L12.7283 38.0387L27.3965 23.3688V23.2214V23.0739L12.7283 8.40405H12.6546Z" fill="#5BC9F4"/>
<path d="M32.335 28.2341L27.4702 23.3688V23.2213V23.0739L32.335 18.2085L32.4088 18.2822L38.2318 21.5995C39.8534 22.5579 39.8534 24.1059 38.2318 24.9905L32.4088 28.3079L32.335 28.2341Z" fill="url(#paint0_linear)"/>
<path d="M32.4087 28.1603L27.3964 23.1475L12.6545 37.8911C13.1705 38.4808 14.1287 38.5545 15.087 37.9648L32.4087 28.1603Z" fill="url(#paint1_linear)"/>
<path d="M32.4087 18.1348L15.087 8.33027C14.055 7.74052 13.1705 7.81424 12.6545 8.40399L27.3964 23.1476L32.4087 18.1348Z" fill="url(#paint2_linear)"/>
<path d="M54.6691 9.21481C54.2269 8.84622 53.6372 8.55135 52.9738 8.55135C51.4996 8.55135 50.394 9.73084 50.394 11.2052C50.394 12.6796 51.4996 13.859 52.9738 13.859C54.2269 13.859 55.1114 13.1219 55.1851 11.9424H53.1949V11.1315H56.217C56.217 13.5642 54.8903 14.7437 52.9001 14.7437C50.9099 14.7437 49.3621 13.1219 49.3621 11.2052C49.3621 9.21481 50.9099 7.59302 52.9001 7.59302C53.7846 7.59302 54.6691 7.96161 55.2588 8.47763L54.6691 9.21481Z" fill="white"/>
<path d="M61.6715 7.74048V8.62509H58.502V10.8366H61.3029V11.7212H58.502V13.8591H61.8189V14.7437H57.6174V7.74048H61.6715Z" fill="white"/>
<path d="M67.7896 7.74048V8.62509H65.652V14.7437H64.7675V8.62509H62.6299V7.74048H67.7896Z" fill="white"/>
<path d="M72.2856 7.74048V14.7437H71.4011V7.74048H72.2856Z" fill="white"/>
<path d="M78.6985 7.74048V8.62509H76.5609V14.7437H75.6027V8.62509H73.4651V7.74048H78.6985Z" fill="white"/>
<path d="M85.406 7.66675C87.3961 7.66675 88.944 9.28854 88.944 11.2789C88.944 13.2693 87.3961 14.8174 85.406 14.8174C83.4158 14.8174 81.8679 13.1956 81.8679 11.2789C81.8679 9.28854 83.4158 7.66675 85.406 7.66675ZM85.406 13.9328C86.8801 13.9328 87.9858 12.7533 87.9858 11.2789C87.9858 9.80457 86.8801 8.62508 85.406 8.62508C83.9318 8.62508 82.8261 9.80457 82.8261 11.2789C82.8261 12.7533 83.9318 13.9328 85.406 13.9328Z" fill="white"/>
<path d="M94.4722 14.7437L91.3027 9.50971V14.7437H90.3445V7.74048H91.3027L94.4722 12.9745V7.74048H95.4304V14.7437H94.4722Z" fill="white"/>
<defs>
<linearGradient id="paint0_linear" x1="37.1651" y1="23.1508" x2="8.50269" y2="23.1508" gradientUnits="userSpaceOnUse">
<stop stop-color="#FEE000"/>
<stop offset="0.1941" stop-color="#FCCF0B"/>
<stop offset="0.5469" stop-color="#FAB318"/>
<stop offset="0.8279" stop-color="#F9A21B"/>
<stop offset="1" stop-color="#F99B1C"/>
</linearGradient>
<linearGradient id="paint1_linear" x1="29.7268" y1="25.8693" x2="2.7654" y2="52.8275" gradientUnits="userSpaceOnUse">
<stop stop-color="#EF4547"/>
<stop offset="1" stop-color="#C6186D"/>
</linearGradient>
<linearGradient id="paint2_linear" x1="2.64839" y1="-6.65003" x2="24.6616" y2="15.3607" gradientUnits="userSpaceOnUse">
<stop stop-color="#279E6F"/>
<stop offset="0.3168" stop-color="#4DAB6D"/>
<stop offset="0.7398" stop-color="#6ABA6A"/>
<stop offset="1" stop-color="#74C169"/>
</linearGradient>
</defs>
</svg>
