<svg width="18" height="17" viewBox="0 0 18 17" fill="none" xmlns="http://www.w3.org/2000/svg">
<path d="M4.21176 6.77344H1V15.7685H4.21176V6.77344Z" stroke="#D8213B" stroke-width="1.5" stroke-miterlimit="10" stroke-linecap="round" stroke-linejoin="round"/>
<path d="M14.7583 6.77345H12.0694C11.0312 6.77345 10.232 5.90203 10.3515 4.91539L10.583 2.66843C10.5905 2.61801 10.598 2.5748 10.598 2.52439V2.50278C10.6204 1.7826 10.0901 1.14164 9.33569 1.01921C8.51407 0.889582 7.73728 1.42972 7.60283 2.22191C7.58789 2.25072 7.58042 2.27953 7.58042 2.30834C7.44598 3.17975 6.8335 5.72919 4.20435 7.54404V14.4074L5.98202 15.502C6.25838 15.6749 6.57955 15.7613 6.9082 15.7613H11.5018C12.1292 15.7613 12.7118 15.43 13.018 14.8971L16.2671 9.24367C16.9095 8.14179 16.0729 6.77345 14.7583 6.77345Z" stroke="#D8213B" stroke-width="1.5" stroke-miterlimit="10" stroke-linecap="round" stroke-linejoin="round"/>
</svg>
