<svg id="Layer_1" data-name="Layer 1" xmlns="http://www.w3.org/2000/svg" viewBox="0 0 312.71 200.37"><defs><style>.cls-1{fill:#d8213b;}</style></defs><path class="cls-1" d="M32.65,63.89H5.77V3.58h6.89v54.1h20Zm10.25,0H36.35L49.19,3.58h9.39l13,60.31H64.52L61.85,51.05H45.48ZM46.77,45H60.56l-7-33.6ZM84.34,14.09l18.26,49.8h7.15V3.58h-6.29V48L86.92,3.58H78V63.89h6.38Zm50.22,49.8H119.14V3.58h15.42c10.34,0,15.33,5.17,15.33,15.59v29C149.89,58.72,144.9,63.89,134.56,63.89Zm-.17-6.21c5.94,0,8.61-2.67,8.61-9.21V18.92c0-6.55-2.67-9.14-8.61-9.14H126v47.9Zm37.82-8.78V18.57c0-10.25,5.51-15.85,15.5-15.85s15.6,5.6,15.6,15.85V48.9c0,10.16-5.52,15.85-15.6,15.85S172.21,59.06,172.21,48.9Zm6.89.43c0,6.2,3.1,9.21,8.61,9.21s8.7-3,8.7-9.21V18.14c0-6.29-3.18-9.22-8.7-9.22s-8.61,2.93-8.61,9.22Zm39.63-12.75h16.19V30.37H218.73V9.78h20V3.58H211.83V63.89h6.9ZM21.88,99.31c-8.44-5.26-11-8.19-11-13.53S14,77.25,19,77.25c5.34,0,8.27,3.28,8.27,8.79v2.15h6.54v-2c0-9.3-5.17-15.07-14.81-15.07S4,77,4,86C4,93.45,6.8,98.27,16.62,104.3c8.27,5.09,10.77,8,10.77,13.87,0,5.69-3.27,8.88-8.53,8.88s-8.44-3.28-8.44-8.79v-3.19H3.79v3c0,9.22,5.34,15.07,15.07,15.07,9.91,0,15.42-5.94,15.42-15.25C34.28,110.08,31.53,105.25,21.88,99.31Zm45.23,17.14L50.57,72h-9v60.3H48V82.51L66.25,132.3H73.4V72H67.11ZM82.78,132.3h27.74v-6.2H89.68V104.3h17V98.19h-17v-20h20.84V72H82.78ZM137.06,72l13,60.3H143l-2.67-12.83H124l-2.58,12.83h-6.55L127.67,72Zm2,41.44-7-33.6-6.8,33.6ZM189.44,72H182.2l-18.87,30.24V72h-6.89v60.3h6.89v-20l7.07-10.69,11.89,30.67h7.41L175.14,94.65Zm6.63,60.3h27.74v-6.2H203V104.3H220V98.19H203v-20h20.85V72H196.07Zm65.73,0h-7c-.6-1.81-.86-3.53-.86-7.84V114.9c0-7-2.67-9.48-9.65-9.48h-6.72V132.3H230.7V72h14.73c10.6,0,15.34,4.56,15.34,14.3V89c0,7.06-2.5,11.2-8.1,12.84V102c5.77,1.29,8.18,5.6,8.18,13.35v9.22A24.37,24.37,0,0,0,261.8,132.3Zm-7.92-42.13v-3c0-6.38-2.5-9-8.53-9h-7.76v21h6.72C250.86,99.22,253.88,96.55,253.88,90.17Zm54.72,84.67-13.54,14.8a.23.23,0,0,1-.07.07l-6.65,6.16a6.86,6.86,0,0,1-1,.81,8.59,8.59,0,0,1-1.69.84,1.68,1.68,0,0,1-.64.13h-.06a1.76,1.76,0,0,1-.83-.27,8,8,0,0,1-1.66-1.16,6.71,6.71,0,0,1-1-1.27,4.06,4.06,0,0,1-.47-1.08,4.38,4.38,0,0,1,.84-3.44l2.88-4.89a4,4,0,0,0,.39-1.11l1.28-8.06a2.16,2.16,0,0,0-.28-1.45l-2.73-4.48a1.22,1.22,0,0,1,.54-1.76l1.58-.71-.91-14.66a.29.29,0,0,1,0-.1l-.09,0a.32.32,0,0,1-.14-.08.64.64,0,0,1,.18-1.08l-1.18-18.89h-.23l-1,6a.5.5,0,0,1,.34.35c.05.22-.06.42-.34.6l-.14.07a.4.4,0,0,1,0,.29l-.07.05-3,18.42a9.67,9.67,0,0,1,1.38.34,1.22,1.22,0,0,1,.66,1.81s-1.29,2.12-2.37,4.06c-.95,1.71-.94,3.8,0,6.76.07.22.16.43.25.64s.11.28.16.41l.18.45a53.59,53.59,0,0,1,2.9,9,1.58,1.58,0,0,1-.56,1.63,3.58,3.58,0,0,1-1.12.68,2.92,2.92,0,0,1-1,.16,3.55,3.55,0,0,1-1-.14,9.08,9.08,0,0,1-2.79-1.57,24.87,24.87,0,0,1-3.12-2.85,60.34,60.34,0,0,1-6.16-7.95c-1.75-2.63-4.4-6.05-6.33-8.54-.72-.94-1.34-1.74-1.75-2.3a7.23,7.23,0,0,1-1.56-3.46,3.59,3.59,0,0,1,1.53-3.37,4.87,4.87,0,0,1,4.58-.51l1.94-.26-.26-1.29a.67.67,0,0,1,.52-.79l2.82-.57a.65.65,0,0,1,.79.52l.31,1.5c.27-.05.51-.1.64-.14l1.72-1.28a1.23,1.23,0,0,1,.91-.23,1.22,1.22,0,0,1,.81.48,3.11,3.11,0,0,1-.63,3.94c-.09.11-.6,1.05-.14,1.67.66.89.82,1.1,2.92.93l.39,0c.78-2.66,2.75-10.31,4.75-18.22-.35-.14-.4-.36-.39-.49a.71.71,0,0,1,.43-.48.33.33,0,0,1,0-.17.43.43,0,0,1,.32-.33l1.48-5.89c-9.39-.22-14.54-6-14.54-15v-3h6.64v3.19c0,5.51,3.1,8.79,8.44,8.79s8.53-3.19,8.53-8.88c0-5.85-2.5-8.78-10.77-13.87-9.82-6-12.66-10.85-12.66-18.26,0-9.05,5.42-14.9,15.07-14.9s14.82,5.77,14.82,15.07v2h-6.55V86c0-5.51-2.93-8.79-8.27-8.79-5.08,0-8.18,3.28-8.18,8.53s2.58,8.27,11,13.53c9.64,5.94,12.4,10.77,12.4,18.6,0,8.88-5,14.68-14.07,15.2l1.14,18.39s0,0,.07,0c.47-.14.88.48,1,.75a.62.62,0,0,1,0,.72s0,0,0,0l2.62,13.53,2.24-1,2.35-1.51,1.64-1.64a1.24,1.24,0,0,1,1.69-.05l8.47,7.49a.12.12,0,0,1,.05.05l3.32,3.31A1.23,1.23,0,0,1,308.6,174.84Zm-27.41-34.13-.3,0c-1.82,7.24-3.8,14.94-4.7,18a13.18,13.18,0,0,1,2,.16Zm.59-3.57-.48,1.94a.67.67,0,0,1,.14.09h0Zm6.4,29.63-2.58-13.35a.38.38,0,0,1-.09.13.55.55,0,0,1-.23.11l.87,14Z"/></svg>