<svg width="39" height="36" viewBox="0 0 39 36" fill="none" xmlns="http://www.w3.org/2000/svg">
<g clip-path="url(#clip0)">
<path d="M19.6726 26.151C23.4062 26.151 26.4328 23.0992 26.4328 19.3348C26.4328 15.5703 23.4062 12.5186 19.6726 12.5186C15.939 12.5186 12.9124 15.5703 12.9124 19.3348C12.9124 23.0992 15.939 26.151 19.6726 26.151Z" stroke="#D8213B" stroke-width="2" stroke-miterlimit="10" stroke-linecap="round" stroke-linejoin="round"/>
<path d="M29.8901 19.3348C29.8901 19.995 28.9763 20.5537 28.854 21.1776C28.7281 21.8197 29.3577 22.6867 29.1166 23.278C28.8684 23.8801 27.8106 24.0434 27.458 24.5766C27.1019 25.1135 27.3537 26.1619 26.9004 26.619C26.4471 27.076 25.4073 26.8221 24.8748 27.1812C24.346 27.5404 24.1841 28.6069 23.5868 28.8535C23.0004 29.1002 22.1405 28.4618 21.5037 28.5887C20.8849 28.7121 20.3308 29.6335 19.676 29.6335C19.0212 29.6335 18.4672 28.7121 17.8484 28.5887C17.2115 28.4618 16.3481 29.0966 15.7652 28.8535C15.168 28.6032 15.0061 27.5367 14.4772 27.1812C13.9448 26.8221 12.905 27.076 12.4517 26.619C11.9984 26.1619 12.2502 25.1171 11.894 24.5766C11.5378 24.0434 10.4801 23.8801 10.2354 23.278C9.99079 22.6867 10.624 21.8197 10.4981 21.1776C10.3758 20.5537 9.46191 19.995 9.46191 19.3348C9.46191 18.6746 10.3758 18.1159 10.4981 17.492C10.624 16.8499 9.99439 15.9793 10.2354 15.3916C10.4837 14.7931 11.5414 14.6262 11.894 14.093C12.2502 13.5561 11.9984 12.5077 12.4517 12.0506C12.905 11.5936 13.9448 11.8475 14.4772 11.4884C15.0061 11.1292 15.168 10.0627 15.7652 9.81606C16.3517 9.56939 17.2115 10.2078 17.8484 10.0809C18.4672 9.95754 19.0212 9.03613 19.676 9.03613C20.3308 9.03613 20.8849 9.95754 21.5037 10.0809C22.1405 10.2078 23.004 9.57301 23.5868 9.81606C24.1841 10.0664 24.346 11.1329 24.8748 11.4884C25.4073 11.8475 26.4471 11.5936 26.9004 12.0506C27.3537 12.5077 27.1019 13.5561 27.458 14.093C27.8106 14.6262 28.872 14.7895 29.1166 15.3916C29.3577 15.9829 28.7281 16.8499 28.854 17.492C28.9727 18.1159 29.8901 18.6782 29.8901 19.3348Z" stroke="#D8213B" stroke-width="2" stroke-miterlimit="10" stroke-linecap="round" stroke-linejoin="round"/>
<path d="M26.5985 26.9268L29.1925 33.1009L25.4544 32.1976L23.5008 35.5314L20.8169 29.1359" stroke="#D8213B" stroke-width="2" stroke-miterlimit="10" stroke-linecap="round" stroke-linejoin="round"/>
<path d="M12.6355 26.7969L9.98755 33.1016L13.7257 32.1983L15.6792 35.5321L18.374 29.1149" stroke="#D8213B" stroke-width="2" stroke-miterlimit="10" stroke-linecap="round" stroke-linejoin="round"/>
<path d="M15.6612 5.32199C14.8625 5.32199 14.1825 6.0076 14.1825 6.81292C14.1825 6.0076 13.5026 5.32199 12.7039 5.32199C13.5026 5.32199 14.1825 4.63638 14.1825 3.83105C14.1825 4.63638 14.8625 5.32199 15.6612 5.32199Z" fill="#D8213B"/>
<path d="M15.6612 5.32199C14.8625 5.32199 14.1825 6.0076 14.1825 6.81292C14.1825 6.0076 13.5026 5.32199 12.7039 5.32199C13.5026 5.32199 14.1825 4.63638 14.1825 3.83105C14.1825 4.63638 14.8625 5.32199 15.6612 5.32199Z" stroke="#D8213B" stroke-width="1.637" stroke-miterlimit="10" stroke-linecap="round" stroke-linejoin="round"/>
<path d="M26.6454 5.32199C25.8467 5.32199 25.1667 6.0076 25.1667 6.81292C25.1667 6.0076 24.4867 5.32199 23.688 5.32199C24.4867 5.32199 25.1667 4.63638 25.1667 3.83105C25.1667 4.63638 25.8467 5.32199 26.6454 5.32199Z" fill="#D8213B"/>
<path d="M26.6454 5.32199C25.8467 5.32199 25.1667 6.0076 25.1667 6.81292C25.1667 6.0076 24.4867 5.32199 23.688 5.32199C24.4867 5.32199 25.1667 4.63638 25.1667 3.83105C25.1667 4.63638 25.8467 5.32199 26.6454 5.32199Z" stroke="#D8213B" stroke-width="1.637" stroke-miterlimit="10" stroke-linecap="round" stroke-linejoin="round"/>
<path d="M21.1515 1.78878C20.3528 1.78878 19.6728 2.47439 19.6728 3.27971C19.6728 2.47439 18.9928 1.78878 18.1941 1.78878C18.9928 1.78878 19.6728 1.10317 19.6728 0.297852C19.6728 1.10317 20.3528 1.78878 21.1515 1.78878Z" fill="#D8213B"/>
<path d="M21.1515 1.78878C20.3528 1.78878 19.6728 2.47439 19.6728 3.27971C19.6728 2.47439 18.9928 1.78878 18.1941 1.78878C18.9928 1.78878 19.6728 1.10317 19.6728 0.297852C19.6728 1.10317 20.3528 1.78878 21.1515 1.78878Z" stroke="#D8213B" stroke-width="1.637" stroke-miterlimit="10" stroke-linecap="round" stroke-linejoin="round"/>
<path d="M30.3943 29.8545C30.4986 29.5244 37.7446 21.1919 32.15 9.85938" stroke="#D8213B" stroke-width="2" stroke-miterlimit="10" stroke-linecap="round" stroke-linejoin="round"/>
<path d="M33.8118 13.9228C31.7467 10.4512 36.3878 8.96387 36.3878 8.96387C36.3878 8.96387 37.8161 13.6579 33.8118 13.9228Z" stroke="#D8213B" stroke-width="2" stroke-miterlimit="10" stroke-linecap="round" stroke-linejoin="round"/>
<path d="M34.4199 18.6311C33.3082 14.7423 38.1688 14.5029 38.1688 14.5029C38.1688 14.5029 38.3559 19.4074 34.4199 18.6311Z" stroke="#D8213B" stroke-width="2" stroke-miterlimit="10" stroke-linecap="round" stroke-linejoin="round"/>
<path d="M33.686 23.4017C33.8983 19.3606 38.5718 20.7427 38.5718 20.7427C38.5718 20.7427 37.1543 25.4404 33.686 23.4017Z" stroke="#D8213B" stroke-width="2" stroke-miterlimit="10" stroke-linecap="round" stroke-linejoin="round"/>
<path d="M31.8223 27.932C32.7001 23.9852 37.0786 26.1291 37.0786 26.1291C37.0786 26.1291 34.9056 30.5258 31.8223 27.932Z" stroke="#D8213B" stroke-width="2" stroke-miterlimit="10" stroke-linecap="round" stroke-linejoin="round"/>
<path d="M32.1463 9.85579C28.1384 9.61637 29.5379 4.91504 29.5379 4.91504C29.5379 4.91504 34.1898 6.37332 32.1463 9.85579Z" stroke="#D8213B" stroke-width="2" stroke-miterlimit="10" stroke-linecap="round" stroke-linejoin="round"/>
<path d="M8.60622 29.8545C8.50189 29.5244 1.25594 21.1919 6.8505 9.85938" stroke="#D8213B" stroke-width="2" stroke-miterlimit="10" stroke-linecap="round" stroke-linejoin="round"/>
<path d="M5.18764 13.9228C7.25277 10.4512 2.61162 8.96387 2.61162 8.96387C2.61162 8.96387 1.1833 13.6579 5.18764 13.9228Z" stroke="#D8213B" stroke-width="2" stroke-miterlimit="10" stroke-linecap="round" stroke-linejoin="round"/>
<path d="M4.58373 18.6311C5.69545 14.7423 0.831242 14.5029 0.831242 14.5029C0.831242 14.5029 0.644157 19.4074 4.58373 18.6311Z" stroke="#D8213B" stroke-width="2" stroke-miterlimit="10" stroke-linecap="round" stroke-linejoin="round"/>
<path d="M5.31377 23.4017C5.1015 19.3606 0.427979 20.7427 0.427979 20.7427C0.427979 20.7427 1.84551 25.4404 5.31377 23.4017Z" stroke="#D8213B" stroke-width="2" stroke-miterlimit="10" stroke-linecap="round" stroke-linejoin="round"/>
<path d="M7.17726 27.932C6.2994 23.9852 1.9209 26.1291 1.9209 26.1291C1.9209 26.1291 4.09396 30.5258 7.17726 27.932Z" stroke="#D8213B" stroke-width="2" stroke-miterlimit="10" stroke-linecap="round" stroke-linejoin="round"/>
<path d="M6.85385 9.85579C10.8582 9.61637 9.46224 4.91504 9.46224 4.91504C9.46224 4.91504 4.81031 6.37332 6.85385 9.85579Z" stroke="#D8213B" stroke-width="2" stroke-miterlimit="10" stroke-linecap="round" stroke-linejoin="round"/>
<path d="M23.0584 18.3299L20.7198 17.9853L19.6729 15.8486L18.6259 17.9853L16.2874 18.3263L17.9819 19.9913L17.579 22.342L19.6729 21.2319L21.7668 22.342L21.3674 19.9949L23.0584 18.3299Z" fill="#D8213B"/>
<path d="M23.0584 18.3299L20.7198 17.9853L19.6729 15.8486L18.6259 17.9853L16.2874 18.3263L17.9819 19.9913L17.579 22.342L19.6729 21.2319L21.7668 22.342L21.3674 19.9949L23.0584 18.3299Z" stroke="#D8213B" stroke-width="0.79" stroke-miterlimit="10" stroke-linecap="round" stroke-linejoin="round"/>
</g>
<defs>
<clipPath id="clip0">
<rect width="39" height="36" fill="white"/>
</clipPath>
</defs>
</svg>
