<svg width="32" height="34" viewBox="0 0 32 34" fill="none" xmlns="http://www.w3.org/2000/svg">
<path d="M20.1863 7.25451C20.1863 7.25451 18.4145 7.61853 16.7743 8.74523C15.134 9.87193 14.601 9.88018 13.4174 9.36545C12.2338 8.85073 12.1416 7.27656 12.3245 6.8515C12.5148 6.42213 12.2822 5.39828 11.7028 5.15374C11.7028 5.15374 11.1373 6.46862 10.9714 6.85397C10.8054 7.23931 6.22673 10.7115 6.22673 10.7115C6.22673 10.7115 4.40227 10.8463 3.7597 12.3555C3.11713 13.8646 4.15321 15.0036 6.01174 15.8076C7.86594 16.6041 12.8566 18.5549 16.0383 20.1325C18.3987 21.3056 20.8378 22.3733 23.3588 23.1343C24.3871 23.4491 25.4355 23.7124 26.5024 23.8353C27.2308 23.9239 27.9978 24.0103 28.7215 23.832C29.0455 23.7548 29.3647 23.6004 29.5774 23.3478C29.7327 23.1683 29.8235 22.9462 29.9069 22.7283C29.9301 22.665 29.9459 22.606 29.938 22.5406C29.9258 22.4678 29.872 22.409 29.8299 22.3534C28.0997 20.3572 26.0526 18.7436 24.0075 17.0989C23.7634 16.9004 23.4926 16.7073 23.2516 16.497C21.1087 14.5793 20.2142 12.9093 20.1838 11.0798C20.1341 9.25146 20.1863 7.25451 20.1863 7.25451Z" fill="#D8213B"/>
<path d="M29.6978 24.4872C29.4737 24.6166 29.2205 24.7128 28.9426 24.7834C28.0286 25.0116 27.117 24.899 26.3767 24.8072C25.3912 24.6873 24.3334 24.4594 23.0649 24.0736C20.7841 23.3836 18.4087 22.4088 15.5899 21.0112C13.3131 19.8796 10.1008 18.5593 7.75326 17.5984C6.8692 17.2402 6.11918 16.9245 5.60738 16.7108C4.46349 16.2131 3.63057 15.6157 3.12788 14.9175C2.48606 14.0301 2.38832 12.9983 2.83544 11.9614C3.52992 10.3524 5.12563 9.89037 5.81438 9.77227C7.66183 8.36619 9.66458 6.7806 10.1022 6.34824L10.7829 4.76715C10.8844 4.52886 11.0813 4.33526 11.327 4.24332C11.5684 4.14389 11.8393 4.14726 12.0818 4.25683C13.1699 4.72686 13.6229 6.32231 13.2277 7.25934C13.2112 7.36872 13.2331 8.23467 13.8007 8.47604C14.6226 8.83015 14.8211 8.91521 16.2042 7.94695C17.9884 6.70722 19.8939 6.31594 19.9741 6.29959C20.2681 6.23964 20.5747 6.3222 20.8027 6.51006C21.035 6.70541 21.1608 6.99222 21.156 7.29449C21.1572 7.31378 21.1081 9.29893 21.1393 11.078C21.1694 12.6481 22.0155 14.0965 23.881 15.775C24.0198 15.8946 24.166 16.0098 24.3079 16.1176C24.4014 16.1934 24.5024 16.2648 24.596 16.3406L24.8928 16.5786C26.8282 18.1369 28.8368 19.7527 30.5454 21.7115C30.6326 21.8109 30.8362 22.0428 30.8853 22.4038C30.9352 22.7145 30.8498 22.9634 30.8097 23.0665C30.7138 23.3315 30.5691 23.6846 30.3096 23.9942C30.1468 24.178 29.9368 24.3492 29.6978 24.4872ZM5.34389 12.0107C5.07498 12.166 4.81077 12.3984 4.66173 12.744C4.48517 13.1455 4.51146 13.4498 4.74335 13.7652C4.94183 14.04 5.38088 14.4554 6.38955 14.8914C6.89388 15.1094 7.62778 15.4145 8.50004 15.7695C10.8755 16.7443 14.1157 18.0784 16.4601 19.2408C19.1791 20.5863 21.4515 21.5206 23.6261 22.182C24.7842 22.5318 25.7327 22.7429 26.6015 22.8504C27.2088 22.919 27.9062 23.0056 28.4664 22.8719C28.615 22.836 28.7389 22.7745 28.8006 22.7089C27.2626 21.011 25.5099 19.5969 23.6605 18.1187L23.3594 17.8732C23.282 17.8081 23.1928 17.7398 23.1079 17.679C22.9251 17.5349 22.7348 17.3952 22.5627 17.235C20.2519 15.1646 19.2084 13.2711 19.1612 11.1019C19.1468 10.2317 19.1493 9.32168 19.156 8.60891C18.6123 8.82298 17.9503 9.12534 17.3201 9.56907C15.4986 10.8304 14.6141 10.9716 13.0099 10.2804C12.2276 9.94334 11.6522 9.2572 11.3925 8.35884C11.3489 8.21429 11.317 8.07292 11.2927 7.92724C10.7069 8.46514 9.48454 9.47037 6.80556 11.5063C6.6542 11.6236 6.47257 11.6886 6.27994 11.6999C6.29488 11.6913 5.80702 11.7433 5.34389 12.0107Z" fill="#D8213B"/>
<path d="M10.257 8.1202L8.5 6.13086L6.76869 7.66289L8.52571 9.65223L10.257 8.1202Z" fill="#D8213B"/>
<path d="M8.80052 10.1148C8.71088 10.1666 8.60395 10.1884 8.50332 10.1866C8.35983 10.1796 8.23208 10.1135 8.12871 10.0035L6.37178 8.0127C6.17251 7.7883 6.19418 7.44632 6.42221 7.25476L8.15017 5.72799C8.25671 5.63652 8.39667 5.58567 8.54016 5.59268C8.68364 5.59969 8.81139 5.66571 8.91476 5.77575L10.6717 7.76654C10.871 7.99094 10.8493 8.33292 10.6213 8.52448L8.8933 10.0513C8.85595 10.0728 8.8304 10.0976 8.80052 10.1148ZM7.52837 7.70437L8.57112 8.88945L9.49152 8.06853L8.44876 6.88344L7.52837 7.70437Z" fill="#D8213B"/>
</svg>
