<svg width="16" height="16" viewBox="0 0 16 16" fill="none" xmlns="http://www.w3.org/2000/svg">
<path d="M15.0492 6.75892V9.24108L13.5016 9.58541C13.3843 9.99405 13.2216 10.38 13.0211 10.747L13.8573 12.0638L12.1016 13.8195L10.7886 12.987C10.4178 13.1951 10.0168 13.3616 9.60054 13.4827L9.26378 15H6.78162L6.44487 13.4827C6.02865 13.3616 5.62757 13.1951 5.25676 12.987L3.94378 13.8195L2.18811 12.0638L3.02432 10.747C2.82378 10.3838 2.66108 9.99405 2.54378 9.58541L1 9.24108V6.75892L2.54378 6.41459C2.66108 6.00595 2.82378 5.62 3.02432 5.25297L2.18811 3.93622L3.94378 2.18054L5.25676 3.01297C5.62757 2.80486 6.02865 2.63838 6.44487 2.5173L6.78162 1H9.26378L9.60054 2.5173C10.0168 2.63838 10.4178 2.80486 10.7886 3.01297L12.1016 2.18054L13.8573 3.93622L13.0211 5.25297C13.2216 5.61622 13.3843 6.00595 13.5016 6.41459L15.0492 6.75892Z" stroke="black" stroke-width="1.3" stroke-miterlimit="10" stroke-linecap="round" stroke-linejoin="round"/>
<path d="M8.02692 10.8834C9.62138 10.8834 10.9139 9.59086 10.9139 7.9964C10.9139 6.40194 9.62138 5.10938 8.02692 5.10938C6.43246 5.10938 5.13989 6.40194 5.13989 7.9964C5.13989 9.59086 6.43246 10.8834 8.02692 10.8834Z" stroke="black" stroke-width="1.3" stroke-miterlimit="10" stroke-linecap="round" stroke-linejoin="round"/>
</svg>
