<svg width="67" height="63" viewBox="0 0 67 63" fill="none" xmlns="http://www.w3.org/2000/svg">
<path d="M55.0548 62.6518H11.1139C7.8359 62.6518 5.16895 59.9849 5.16895 56.7068V25.4286C5.16895 24.2867 6.09468 23.3608 7.23675 23.3608C8.37883 23.3608 9.30456 24.2867 9.30456 25.4286V56.7068C9.30456 57.7045 10.1162 58.5162 11.1139 58.5162H55.0548C56.0525 58.5162 56.8641 57.7045 56.8641 56.7068V25.4286C56.8641 24.2867 57.7899 23.3608 58.9319 23.3608C60.074 23.3608 60.9997 24.2867 60.9997 25.4286V56.7068C60.9997 59.9848 58.3329 62.6518 55.0548 62.6518Z" fill="black"/>
<path d="M64.102 32.6652C63.5728 32.6652 63.0437 32.4633 62.6399 32.0595L36.923 6.3428C34.8067 4.2264 31.3632 4.2264 29.2468 6.3428L3.52997 32.0596C2.72249 32.8672 1.41318 32.8672 0.605706 32.0596C-0.201902 31.2521 -0.201902 29.9428 0.605706 29.1353L26.3225 3.41841C30.0513 -0.310367 36.1186 -0.310367 39.8473 3.41841L65.5641 29.1352C66.3717 29.9428 66.3717 31.252 65.5641 32.0595C65.1605 32.4633 64.6312 32.6652 64.102 32.6652Z" fill="black"/>
<path d="M41.3564 62.6508H24.8139C23.6718 62.6508 22.7461 61.7249 22.7461 60.583V42.2312C22.7461 38.6681 25.6449 35.7693 29.208 35.7693H36.9623C40.5254 35.7693 43.4242 38.6681 43.4242 42.2312V60.583C43.4242 61.7249 42.4984 62.6508 41.3564 62.6508ZM26.8817 58.5152H39.2886V42.2312C39.2886 40.9485 38.245 39.9049 36.9623 39.9049H29.208C27.9253 39.9049 26.8817 40.9485 26.8817 42.2312V58.5152Z" fill="black"/>
</svg>
