<svg width="77" height="50" viewBox="0 0 77 50" fill="none" xmlns="http://www.w3.org/2000/svg">
<path fill-rule="evenodd" clip-rule="evenodd" d="M49.0877 0.880859H3.41241C2.08 0.880859 1 1.96086 1 3.29341V40.4447C1 41.7771 2.08 42.8571 3.41241 42.8571H8.5364C9.52808 46.5133 12.8761 49.2108 16.8423 49.2108C20.8086 49.2108 24.1567 46.5132 25.1483 42.857H53.1658C54.1574 46.5132 57.5055 49.2108 61.4716 49.2108C65.4384 49.2108 68.786 46.5134 69.7776 42.8573H73.3713C74.7037 42.8573 75.7837 41.7782 75.7837 40.4449V23.3168C75.7838 21.9843 74.7038 20.9043 73.3714 20.9043H71.5814L66.0771 10.8961C65.6533 10.1258 64.8427 9.64653 63.9629 9.64653H51.5001V3.29341C51.5002 1.96086 50.4202 0.880859 49.0877 0.880859ZM51.5001 14.4713V20.9043H66.0743L62.5363 14.4713H51.5001ZM70.9589 38.0325H69.6826C68.5857 34.5418 65.3196 32.0029 61.4716 32.0029C57.6238 32.0029 54.3579 34.5417 53.2608 38.0322H51.5001V25.7292H70.9589V38.0325ZM25.0532 38.0322H46.6752V5.70582H5.82482V38.0323H8.6314C9.72839 34.5418 12.9945 32.0029 16.8423 32.0029C20.6902 32.0029 23.9561 34.5417 25.0532 38.0322ZM57.6922 40.6064C57.6922 42.69 59.3873 44.3851 61.4716 44.3851C63.556 44.3851 65.2512 42.6898 65.251 40.6064C65.251 38.5229 63.556 36.8269 61.4716 36.8269C59.3873 36.8269 57.6922 38.522 57.6922 40.6064ZM13.0629 40.6064C13.0629 42.69 14.758 44.3851 16.8423 44.3851C18.9258 44.3851 20.6218 42.6898 20.6218 40.6064C20.6218 38.5229 18.9267 36.8269 16.8423 36.8269C14.758 36.8269 13.0629 38.522 13.0629 40.6064Z" fill="black"/>
<path d="M8.5364 42.8571L9.01897 42.7263L8.91885 42.3571H8.5364V42.8571ZM25.1483 42.857V42.357H24.7659L24.6658 42.7261L25.1483 42.857ZM53.1658 42.857L53.6483 42.7261L53.5482 42.357H53.1658V42.857ZM69.7776 42.8573V42.3573H69.3951L69.295 42.7264L69.7776 42.8573ZM75.7837 23.3168L75.2837 23.3167V23.3168H75.7837ZM71.5814 20.9043L71.1433 21.1453L71.2858 21.4043H71.5814V20.9043ZM66.0771 10.8961L66.5152 10.6552L66.5152 10.6551L66.0771 10.8961ZM51.5001 9.64653H51.0001V10.1465H51.5001V9.64653ZM51.5001 3.29341L51.0001 3.29336V3.29341H51.5001ZM51.5001 14.4713V13.9713H51.0001V14.4713H51.5001ZM51.5001 20.9043H51.0001V21.4043H51.5001V20.9043ZM66.0743 20.9043V21.4043H66.9199L66.5124 20.6634L66.0743 20.9043ZM62.5363 14.4713L62.9744 14.2304L62.832 13.9713H62.5363V14.4713ZM69.6826 38.0325L69.2056 38.1824L69.3156 38.5325H69.6826V38.0325ZM70.9589 38.0325V38.5325H71.4589V38.0325H70.9589ZM53.2608 38.0322V38.5322H53.6278L53.7378 38.1821L53.2608 38.0322ZM51.5001 38.0322H51.0001V38.5322H51.5001V38.0322ZM51.5001 25.7292V25.2292H51.0001V25.7292H51.5001ZM70.9589 25.7292H71.4589V25.2292H70.9589V25.7292ZM46.6752 38.0322V38.5322H47.1752V38.0322H46.6752ZM25.0532 38.0322L24.5762 38.1821L24.6862 38.5322H25.0532V38.0322ZM46.6752 5.70582H47.1752V5.20582H46.6752V5.70582ZM5.82482 5.70582V5.20582H5.32482V5.70582H5.82482ZM5.82482 38.0323H5.32482V38.5323H5.82482V38.0323ZM8.6314 38.0323V38.5323H8.99838L9.1084 38.1822L8.6314 38.0323ZM65.251 40.6064H64.751V40.6064L65.251 40.6064ZM3.41241 1.38086H49.0877V0.380859H3.41241V1.38086ZM1.5 3.29341C1.5 2.23699 2.35617 1.38086 3.41241 1.38086V0.380859C1.80384 0.380859 0.5 1.68474 0.5 3.29341H1.5ZM1.5 40.4447V3.29341H0.5V40.4447H1.5ZM3.41241 42.3571C2.35615 42.3571 1.5 41.501 1.5 40.4447H0.5C0.5 42.0533 1.80386 43.3571 3.41241 43.3571V42.3571ZM8.5364 42.3571H3.41241V43.3571H8.5364V42.3571ZM16.8423 48.7108C13.108 48.7108 9.95318 46.1706 9.01897 42.7263L8.05384 42.988C9.10298 46.8561 12.6442 49.7108 16.8423 49.7108V48.7108ZM24.6658 42.7261C23.7316 46.1705 20.5767 48.7108 16.8423 48.7108V49.7108C21.0405 49.7108 24.5818 46.856 25.6309 42.9879L24.6658 42.7261ZM53.1658 42.357H25.1483V43.357H53.1658V42.357ZM61.4716 48.7108C57.7374 48.7108 54.5825 46.1705 53.6483 42.7261L52.6832 42.9879C53.7323 46.856 57.2736 49.7108 61.4716 49.7108V48.7108ZM69.295 42.7264C68.3609 46.1707 65.2065 48.7108 61.4716 48.7108V49.7108C65.6703 49.7108 69.2111 46.8562 70.2601 42.9882L69.295 42.7264ZM73.3713 42.3573H69.7776V43.3573H73.3713V42.3573ZM75.2837 40.4449C75.2837 41.5019 74.4277 42.3573 73.3713 42.3573V43.3573C74.9797 43.3573 76.2837 42.0545 76.2837 40.4449H75.2837ZM75.2837 23.3168V40.4449H76.2837V23.3168H75.2837ZM73.3714 21.4043C74.4277 21.4043 75.2838 22.2605 75.2837 23.3167L76.2837 23.3168C76.2839 21.7082 74.9799 20.4043 73.3714 20.4043V21.4043ZM71.5814 21.4043H73.3714V20.4043H71.5814V21.4043ZM72.0196 20.6634L66.5152 10.6552L65.639 11.1371L71.1433 21.1453L72.0196 20.6634ZM66.5152 10.6551C66.0035 9.72495 65.0249 9.14653 63.9629 9.14653V10.1465C64.6604 10.1465 65.3032 10.5266 65.639 11.1371L66.5152 10.6551ZM63.9629 9.14653H51.5001V10.1465H63.9629V9.14653ZM51.0001 3.29341V9.64653H52.0001V3.29341H51.0001ZM49.0877 1.38086C50.1441 1.38086 51.0002 2.237 51.0001 3.29336L52.0001 3.29347C52.0002 1.68472 50.6963 0.380859 49.0877 0.380859V1.38086ZM51.0001 14.4713V20.9043H52.0001V14.4713H51.0001ZM51.5001 21.4043H66.0743V20.4043H51.5001V21.4043ZM62.0982 14.7123L65.6362 21.1453L66.5124 20.6634L62.9744 14.2304L62.0982 14.7123ZM51.5001 14.9713H62.5363V13.9713H51.5001V14.9713ZM69.6826 38.5325H70.9589V37.5325H69.6826V38.5325ZM61.4716 32.5029C65.0945 32.5029 68.1721 34.8936 69.2056 38.1824L70.1596 37.8826C68.9992 34.1901 65.5447 31.5029 61.4716 31.5029V32.5029ZM53.7378 38.1821C54.7714 34.8935 57.8489 32.5029 61.4716 32.5029V31.5029C57.3987 31.5029 53.9443 34.1899 52.7839 37.8823L53.7378 38.1821ZM51.5001 38.5322H53.2608V37.5322H51.5001V38.5322ZM51.0001 25.7292V38.0322H52.0001V25.7292H51.0001ZM70.9589 25.2292H51.5001V26.2292H70.9589V25.2292ZM71.4589 38.0325V25.7292H70.4589V38.0325H71.4589ZM46.6752 37.5322H25.0532V38.5322H46.6752V37.5322ZM46.1752 5.70582V38.0322H47.1752V5.70582H46.1752ZM5.82482 6.20582H46.6752V5.20582H5.82482V6.20582ZM6.32482 38.0323V5.70582H5.32482V38.0323H6.32482ZM8.6314 37.5323H5.82482V38.5323H8.6314V37.5323ZM16.8423 31.5029C12.7694 31.5029 9.31484 34.19 8.1544 37.8824L9.1084 38.1822C10.1419 34.8935 13.2196 32.5029 16.8423 32.5029V31.5029ZM25.5302 37.8822C24.3696 34.1899 20.9153 31.5029 16.8423 31.5029V32.5029C20.4651 32.5029 23.5426 34.8935 24.5762 38.1821L25.5302 37.8822ZM61.4716 43.8851C59.6633 43.8851 58.1922 42.4138 58.1922 40.6064H57.1922C57.1922 42.9662 59.1112 44.8851 61.4716 44.8851V43.8851ZM64.751 40.6064C64.7512 42.4136 63.2799 43.8851 61.4716 43.8851V44.8851C63.832 44.8851 65.7512 42.9661 65.751 40.6063L64.751 40.6064ZM61.4716 37.3269C63.2797 37.3269 64.751 38.799 64.751 40.6064H65.751C65.751 38.2468 63.8322 36.3269 61.4716 36.3269V37.3269ZM58.1922 40.6064C58.1922 38.7982 59.6634 37.3269 61.4716 37.3269V36.3269C59.1111 36.3269 57.1922 38.2459 57.1922 40.6064H58.1922ZM16.8423 43.8851C15.0341 43.8851 13.5629 42.4138 13.5629 40.6064H12.5629C12.5629 42.9662 14.4819 44.8851 16.8423 44.8851V43.8851ZM20.1218 40.6064C20.1218 42.4136 18.6498 43.8851 16.8423 43.8851V44.8851C19.2018 44.8851 21.1218 42.9661 21.1218 40.6064H20.1218ZM16.8423 37.3269C18.6505 37.3269 20.1218 38.799 20.1218 40.6064H21.1218C21.1218 38.2468 19.2029 36.3269 16.8423 36.3269V37.3269ZM13.5629 40.6064C13.5629 38.7982 15.0341 37.3269 16.8423 37.3269V36.3269C14.4819 36.3269 12.5629 38.2459 12.5629 40.6064H13.5629Z" fill="white"/>
</svg>
