<svg width="59" height="60" viewBox="0 0 59 60" fill="none" xmlns="http://www.w3.org/2000/svg">
<path d="M26.4502 43.3674H15.2364C14.2849 43.3674 13.5137 44.1387 13.5137 45.0901C13.5137 46.0416 14.2849 46.8128 15.2364 46.8128H26.4502C27.4016 46.8128 28.1728 46.0416 28.1728 45.0901C28.1727 44.1387 27.4015 43.3674 26.4502 43.3674Z" fill="black"/>
<path d="M44.9798 0.906738C36.0262 0.906738 29.3768 9.30633 31.4603 18.0185C30.324 18.0185 6.11355 18.0185 4.89578 18.0185C2.19577 18.0185 0 20.2154 0 22.9142V54.811C0 57.5098 2.19577 59.7067 4.89578 59.7067H36.7913C39.4913 59.7067 41.6883 57.5098 41.6883 54.811V28.3039C50.4396 30.4465 58.8759 23.7706 58.8759 14.8028C58.8759 7.14045 52.6422 0.906738 44.9798 0.906738ZM15.7715 21.4637H25.9156V30.3641L22.5713 28.3142C21.5056 27.663 20.1814 27.663 19.1134 28.3153L15.7715 30.3641V21.4637ZM38.243 54.811C38.243 55.6103 37.5918 56.2615 36.7913 56.2615H4.89578C4.09532 56.2615 3.44527 55.6103 3.44527 54.811V22.9142C3.44527 22.1149 4.09532 21.4637 4.89578 21.4637H12.3262V30.6076C12.3262 32.4402 13.8144 33.9162 15.6349 33.9162C16.8213 33.9162 17.1296 33.5721 20.8441 31.2954L24.3216 33.4281C26.5219 34.7784 29.361 33.1907 29.361 30.6076V21.4637H32.7879C34.05 23.7675 35.9473 25.6762 38.243 26.9532V54.811ZM44.9798 25.2536C41.778 25.2536 38.8653 23.7972 36.9407 21.4718H36.9396C31.3309 14.7184 36.1236 4.35201 44.9798 4.35201C50.7426 4.35201 55.4306 9.04001 55.4306 14.8028C55.4306 20.5657 50.7426 25.2536 44.9798 25.2536Z" fill="black"/>
<path d="M47.2495 10.0995L43.0043 14.7881L41.9098 13.623C41.2585 12.9295 40.1681 12.8953 39.4749 13.5469C38.7815 14.1983 38.7473 15.2884 39.3987 15.9818L41.7721 18.5084C42.4606 19.2418 43.6298 19.2304 44.3045 18.4853L49.8033 12.4122C50.4419 11.7069 50.3878 10.6176 49.6827 9.979C48.9775 9.34022 47.888 9.3945 47.2495 10.0995Z" fill="black"/>
</svg>
