<svg width="53" height="60" viewBox="0 0 53 60" fill="none" xmlns="http://www.w3.org/2000/svg">
<path d="M0.120117 17.7808V38.0414C0.120117 38.2501 0.16122 38.4568 0.241078 38.6495C0.320936 38.8423 0.437986 39.0175 0.585544 39.1651C0.733103 39.3126 0.90828 39.4297 1.10108 39.5095C1.29387 39.5894 1.50051 39.6305 1.70918 39.6305C1.91786 39.6305 2.1245 39.5894 2.31729 39.5095C2.51009 39.4297 2.68527 39.3126 2.83283 39.1651C2.98038 39.0175 3.09743 38.8423 3.17729 38.6495C3.25715 38.4568 3.29825 38.2501 3.29825 38.0414V18.6985L24.6291 31.013V55.6435L22.2455 54.2666C21.8804 54.0559 21.4466 53.9988 21.0394 54.108C20.6323 54.2171 20.2852 54.4835 20.0744 54.8486C19.8637 55.2137 19.8066 55.6475 19.9158 56.0547C20.0249 56.4618 20.2914 56.8089 20.6564 57.0197L23.8346 58.8582C24.5347 59.2595 25.3254 59.4763 26.1324 59.4883C26.161 59.4883 26.188 59.497 26.2174 59.497C26.2468 59.497 26.2738 59.4899 26.3024 59.4883C27.1098 59.4764 27.901 59.2596 28.6018 58.8582L49.9326 46.5429C50.6568 46.1232 51.2582 45.5207 51.6765 44.7957C52.0948 44.0706 52.3154 43.2484 52.3162 42.4114V17.7808C52.3153 16.9438 52.0947 16.1216 51.6764 15.3966C51.2581 14.6716 50.6568 14.069 49.9326 13.6493L28.6018 1.33399C27.8767 0.916666 27.0548 0.697021 26.2182 0.697021C25.3816 0.697021 24.5596 0.916666 23.8346 1.33399L2.50372 13.6493C1.77954 14.069 1.17824 14.6716 0.759948 15.3966C0.341657 16.1216 0.121026 16.9438 0.120117 17.7808ZM13.9116 10.7357L35.2417 23.051L26.2182 28.2607L4.88653 15.9455L13.9116 10.7357ZM48.3435 43.7883L27.8072 55.6443V31.0138L39.2016 24.4366L49.1333 18.7025V42.4114C49.1337 42.6897 49.0609 42.9632 48.9223 43.2046C48.7837 43.446 48.5841 43.6467 48.3435 43.7867V43.7883ZM25.4236 4.08943C25.6652 3.94996 25.9392 3.87654 26.2182 3.87654C26.4971 3.87654 26.7711 3.94996 27.0127 4.08943L47.5498 15.9463L38.4206 21.2172L17.0898 8.90192L25.4236 4.08943Z" fill="black"/>
<path d="M43.8218 27.5856C43.4592 27.3771 43.0482 27.2673 42.63 27.2673C42.2117 27.2673 41.8007 27.3771 41.4382 27.5856L34.0395 31.8554C33.6774 32.0653 33.3767 32.3666 33.1676 32.7291C32.9584 33.0916 32.8481 33.5027 32.8477 33.9212V38.4929C32.8474 38.9115 32.9573 39.3227 33.1664 39.6853C33.3755 40.0478 33.6764 40.349 34.0388 40.5583C34.4012 40.7677 34.8123 40.878 35.2309 40.8781C35.6494 40.8781 36.0606 40.768 36.4231 40.5587L43.821 36.2873C44.183 36.0774 44.4837 35.7762 44.6928 35.4136C44.902 35.0511 45.0123 34.64 45.0128 34.2215V29.6498C45.0122 29.2316 44.9019 28.8209 44.6929 28.4586C44.4839 28.0964 44.1835 27.7954 43.8218 27.5856ZM41.8354 33.7607L36.0266 37.1144V34.378L41.8354 31.0259V33.7607Z" fill="black"/>
<path d="M10.3289 58.6977C12.3718 58.6977 14.3688 58.0919 16.0674 56.9569C17.766 55.822 19.0899 54.2088 19.8716 52.3215C20.6534 50.4341 20.858 48.3573 20.4594 46.3537C20.0609 44.35 19.0771 42.5096 17.6326 41.0651C16.1881 39.6205 14.3476 38.6368 12.344 38.2383C10.3404 37.8397 8.26359 38.0443 6.37622 38.826C4.48886 39.6078 2.8757 40.9317 1.74074 42.6303C0.605782 44.3289 0 46.3259 0 48.3687C0.00315428 51.1072 1.09239 53.7325 3.02876 55.6689C4.96513 57.6053 7.5905 58.6945 10.3289 58.6977ZM10.3289 41.2179C11.7432 41.2179 13.1258 41.6373 14.3017 42.4231C15.4777 43.2088 16.3942 44.3256 16.9354 45.6322C17.4766 46.9389 17.6183 48.3767 17.3423 49.7638C17.0664 51.1509 16.3854 52.4251 15.3853 53.4251C14.3853 54.4252 13.1111 55.1062 11.724 55.3821C10.3369 55.6581 8.89908 55.5164 7.59244 54.9752C6.28581 54.434 5.169 53.5175 4.38326 52.3415C3.59752 51.1656 3.17813 49.783 3.17813 48.3687C3.18024 46.4729 3.9343 44.6553 5.27488 43.3147C6.61546 41.9741 8.43307 41.22 10.3289 41.2179Z" fill="black"/>
<path d="M9.53576 52.3421C9.74447 52.3423 9.95117 52.3013 10.144 52.2214C10.3368 52.1415 10.5119 52.0243 10.6592 51.8765L15.4264 47.1093C15.7159 46.8096 15.8761 46.4082 15.8724 45.9915C15.8688 45.5749 15.7017 45.1763 15.4071 44.8817C15.1124 44.5871 14.7139 44.4199 14.2972 44.4163C13.8806 44.4127 13.4792 44.5729 13.1795 44.8623L9.53576 48.5053L7.4811 46.4506C7.1814 46.1611 6.77999 46.001 6.36335 46.0046C5.9467 46.0082 5.54814 46.1753 5.25351 46.47C4.95889 46.7646 4.79177 47.1631 4.78815 47.5798C4.78453 47.9964 4.9447 48.3978 5.23416 48.6975L8.41229 51.8757C8.55957 52.0236 8.73465 52.141 8.92746 52.2211C9.12027 52.3011 9.327 52.3422 9.53576 52.3421Z" fill="black"/>
</svg>
