<svg width="140" height="140" viewBox="0 0 140 140" fill="none" xmlns="http://www.w3.org/2000/svg">
<path d="M94.5063 78.5131L98.3142 82.321L82.7984 99.286C81.7612 100.238 80.7382 101.204 79.701 102.156L75.1684 106.348C74.8701 106.632 74.5575 106.902 74.2023 107.129C73.6766 107.47 73.1224 107.74 72.5399 107.953C72.4546 107.982 72.3694 108.01 72.2841 108.01C72.1704 108.01 72.071 107.953 71.9857 107.896C71.4174 107.57 70.8348 107.229 70.366 106.774C70.0107 106.433 69.7266 106.035 69.485 105.609C69.3287 105.339 69.1724 105.04 69.0872 104.742C68.7888 103.577 69.485 102.568 70.0392 101.616C70.5223 100.806 71.0054 99.9822 71.4742 99.1723L73.1935 96.2596C73.4634 95.8049 73.7476 95.0092 73.8186 94.4977L75.2821 85.2622C75.4242 84.3528 75.2395 83.4293 74.7706 82.6478L71.6447 77.5043L79.8857 73.8101L82.7984 71.9488L84.7876 69.9596L94.5063 78.5131Z" fill="#D8213B"/>
<path d="M72.2831 109.417C72.2547 109.417 72.2405 109.417 72.2121 109.417C71.7432 109.388 71.4164 109.203 71.2601 109.118C70.6491 108.763 69.9671 108.365 69.3704 107.783C68.9725 107.399 68.6031 106.916 68.2621 106.319C68.0774 106.007 67.8501 105.58 67.7222 105.083C67.2959 103.449 68.0916 102.113 68.6742 101.133L71.9705 95.5206C72.141 95.2222 72.3684 94.5971 72.4252 94.2561L73.8887 85.0205C73.974 84.438 73.8603 83.8554 73.5619 83.3581L70.436 78.2146C70.2229 77.8736 70.1803 77.4474 70.2939 77.0637C70.4076 76.6801 70.6918 76.3675 71.0612 76.197L79.2027 72.5454L81.9023 70.812L83.7921 68.9222C84.3178 68.3965 85.1703 68.3681 85.7244 68.8654L95.4431 77.4474C95.4715 77.4616 95.4857 77.49 95.4999 77.5042L99.3078 81.3121C99.8477 81.852 99.8619 82.7045 99.3504 83.2586L83.8347 100.224C83.8063 100.252 83.7778 100.28 83.7494 100.309L76.1194 107.371C75.8068 107.669 75.4232 107.996 74.9543 108.294C74.3434 108.692 73.6898 109.005 73.022 109.26C72.8799 109.317 72.6241 109.417 72.2831 109.417ZM73.6756 78.1152L75.9774 81.8804C76.631 82.9461 76.8725 84.2106 76.6878 85.461L75.2243 94.6965C75.1106 95.3785 74.7696 96.3589 74.4144 96.9557L71.1038 102.582C70.6207 103.392 70.3366 103.918 70.4502 104.373C70.4929 104.529 70.6065 104.728 70.6918 104.884C70.9049 105.253 71.118 105.538 71.3454 105.751C71.6295 106.021 71.9848 106.248 72.3826 106.49C72.752 106.333 73.1072 106.149 73.434 105.921C73.704 105.751 73.974 105.509 74.2013 105.296L81.7886 98.2771L96.3524 82.3493L93.5391 79.536L84.8577 71.8492L83.8063 72.9006C83.7352 72.9717 83.65 73.0285 83.5647 73.0853L80.652 74.9467C80.5951 74.9893 80.5241 75.0177 80.4672 75.0461L73.6756 78.1152Z" fill="#D8213B"/>
<path d="M66.3565 66.8052C66.3565 66.8052 63.9127 65.9811 61.071 66.2226C58.2293 66.45 57.5757 66.0663 56.4674 64.5886C55.3591 63.111 56.3822 61.1076 56.9079 60.7097C57.4336 60.3119 57.8883 58.891 57.3483 58.1664C57.3483 58.1664 55.7144 59.3883 55.2313 59.7435C54.7482 60.0987 46.6067 61.1218 46.6067 61.1218C46.6067 61.1218 44.2623 59.9851 42.3725 61.3917C40.497 62.7984 40.9659 64.9439 42.6851 67.2598C44.4044 69.5758 49.1926 75.5292 51.9917 79.7491C54.0804 82.875 56.3253 85.9299 58.9113 88.6721C59.9627 89.7946 61.071 90.8602 62.3071 91.7838C63.1454 92.409 64.0406 93.0625 65.0494 93.3609C65.504 93.4888 66.0013 93.5314 66.456 93.3609C66.7686 93.2473 67.0386 93.0483 67.2943 92.8352C67.3654 92.7784 67.4364 92.7073 67.4648 92.6363C67.5074 92.5368 67.479 92.4232 67.4648 92.3237C66.7402 88.6295 65.362 85.1768 64.0121 81.6815C63.8416 81.2553 63.6569 80.8432 63.5148 80.4027C62.2361 76.5096 62.3213 73.81 63.5859 71.5366C64.8789 69.2348 66.3565 66.8052 66.3565 66.8052Z" fill="#D8213B"/>
<path d="M65.8324 94.8669C65.463 94.8669 65.0794 94.8101 64.6815 94.6964C63.3886 94.327 62.3371 93.5313 61.4846 92.9061C60.3479 92.0536 59.2113 91.0164 57.9041 89.6382C55.5739 87.1517 53.3289 84.2673 50.8424 80.5305C48.8248 77.5041 45.7984 73.5967 43.5819 70.7266C42.7436 69.6468 42.0473 68.7374 41.5643 68.098C40.4986 66.6772 39.9018 65.3416 39.774 64.1196C39.6177 62.5567 40.2287 61.2353 41.5216 60.2549C43.525 58.763 45.841 59.3314 46.7788 59.6724C50.0752 59.2603 53.6841 58.7346 54.5224 58.4931L56.4974 57.0154C56.7958 56.788 57.1794 56.6886 57.5489 56.7454C57.9183 56.8022 58.2593 57.0012 58.4724 57.2995C59.4812 58.6494 58.8987 60.9511 57.7478 61.8179C57.6483 61.9457 57.0658 63.0256 57.5915 63.736C58.3587 64.759 58.5292 65.0006 60.9447 64.8017C64.028 64.5459 66.6849 65.4126 66.7986 65.4552C67.2107 65.5973 67.5232 65.9099 67.6795 66.3078C67.8216 66.7056 67.779 67.1603 67.5517 67.5297C67.5375 67.5581 66.0598 69.9593 64.8236 72.1901C63.7296 74.1509 63.7438 76.5379 64.8662 79.9337C64.9515 80.1753 65.051 80.4168 65.1504 80.6584C65.2215 80.8147 65.2783 80.971 65.3493 81.1273L65.5483 81.6388C66.8412 84.9494 68.1626 88.3736 68.8731 92.011C68.9157 92.1957 68.9867 92.622 68.802 93.1051C68.6457 93.5313 68.3473 93.7729 68.2337 93.8723C67.9211 94.1423 67.4948 94.4549 66.9549 94.6538C66.5997 94.7959 66.2303 94.8669 65.8324 94.8669ZM44.6049 62.102C44.1502 62.102 43.6671 62.2015 43.2409 62.5283C42.7436 62.8977 42.5588 63.2813 42.6157 63.8497C42.6583 64.3328 42.9141 65.1569 43.8518 66.4214C44.3207 67.0466 45.0169 67.9559 45.841 69.0074C48.086 71.9059 51.1408 75.8701 53.2153 78.9676C55.6165 82.5623 57.762 85.3472 59.9927 87.7058C61.172 88.9704 62.195 89.8939 63.2039 90.647C63.9143 91.1727 64.7099 91.7695 65.5056 91.9968C65.7188 92.0536 65.9177 92.0678 66.0314 92.0252C65.3493 88.8283 64.1842 85.8445 62.9623 82.6902L62.7634 82.1787C62.7066 82.0366 62.6497 81.8945 62.5929 81.7666C62.465 81.4541 62.3371 81.1415 62.2377 80.8289C60.8595 76.6232 60.9163 73.5399 62.4224 70.8403C63.0191 69.7604 63.6727 68.638 64.1984 67.757C63.3743 67.6291 62.3371 67.5439 61.2431 67.6291C58.0888 67.8849 56.8953 67.4444 55.4034 65.441C54.6787 64.4606 54.4514 63.2103 54.7782 61.9173C54.835 61.7184 54.8919 61.5053 54.9629 61.3206C53.8546 61.5763 51.6239 61.9457 46.8498 62.5283C46.5799 62.5567 46.3099 62.5141 46.0684 62.4004C45.9973 62.3862 45.3579 62.102 44.6049 62.102Z" fill="#D8213B"/>
<path d="M52.706 57.0794L49.4756 57.7354L50.2277 61.4392L53.4581 60.7833L52.706 57.0794Z" fill="#D8213B"/>
<path d="M50.2318 62.2156C50.0755 62.2156 49.9334 62.1729 49.8056 62.0877C49.6351 61.974 49.5214 61.8035 49.4787 61.6046L48.7257 57.8962C48.6404 57.4841 48.9104 57.0721 49.3225 56.9868L52.562 56.3332C52.7609 56.2906 52.974 56.3332 53.1446 56.4469C53.3151 56.5606 53.4287 56.7311 53.4713 56.93L54.2244 60.6384C54.3096 61.0505 54.0397 61.4625 53.6276 61.5478L50.3881 62.2014C50.3313 62.2156 50.2744 62.2156 50.2318 62.2156ZM50.3881 58.3366L50.8286 60.539L52.562 60.1837L52.1215 57.9814L50.3881 58.3366Z" fill="#D8213B"/>
<path d="M62.6223 78.8541C62.6081 78.8541 62.5797 78.8541 62.5655 78.8541C62.3666 78.8257 62.2245 78.6267 62.2529 78.4278L68.5899 40.0506C65.734 51.4458 62.0398 65.9101 61.6419 66.3648C61.4998 66.5211 61.2725 66.5353 61.1162 66.3932C60.9741 66.2653 60.9457 66.0522 61.0594 65.8959C61.5709 64.8587 66.757 44.4126 70.1244 30.8719C70.1671 30.6729 70.366 30.5593 70.5649 30.5877C70.7638 30.6303 70.8917 30.815 70.8633 31.014L63.006 78.5273C62.9633 78.7262 62.807 78.8541 62.6223 78.8541Z" fill="#D8213B"/>
<path d="M73.5752 81.042C73.3763 81.042 73.2058 80.8857 73.2058 80.6868L70.1083 30.9854C70.0941 30.7722 70.2504 30.6017 70.4635 30.5875C70.6767 30.5875 70.8472 30.7296 70.8614 30.9427L73.9588 80.6442C73.973 80.8573 73.8168 81.0278 73.6036 81.042C73.5894 81.042 73.5752 81.042 73.5752 81.042Z" fill="#D8213B"/>
<path d="M68.1331 44.1708C67.7637 44.1708 67.3232 44.0572 66.9253 43.9435C66.428 43.7872 66.3854 43.503 66.3996 43.3467C66.428 43.1194 66.627 42.9347 66.8969 42.7926C66.8827 42.7358 66.8827 42.6647 66.8969 42.5937C66.9254 42.4374 67.0532 42.2385 67.4368 42.1674C67.7779 42.1248 68.0194 42.2243 68.1899 42.3663C68.403 42.3237 68.5451 42.3095 68.5451 42.3095C68.5735 42.3095 68.602 42.3095 68.6304 42.3095C68.8151 42.3379 69.2556 42.4232 69.3408 42.7926C69.3976 43.0484 69.2697 43.2757 68.9429 43.4746C68.8861 43.5172 68.8293 43.5314 68.7867 43.5599C68.8435 43.7162 68.7725 43.8582 68.7583 43.8867C68.673 44.0998 68.4315 44.1708 68.1331 44.1708Z" fill="#D8213B"/>
<path d="M72.4533 59.0189C72.4107 59.0189 72.3538 59.0189 72.297 59.0047C71.9702 58.9337 71.8423 58.7063 71.7997 58.479C71.7571 58.4648 71.7287 58.4648 71.7002 58.4506C71.6434 58.4364 71.5866 58.3937 71.5439 58.3511C71.4871 58.2943 71.2314 58.0243 71.3024 57.6549C71.345 57.4702 71.4729 57.2144 71.8992 57.0439C71.9986 57.0013 72.0839 56.9871 72.1549 56.9871C72.1691 56.6745 72.3539 56.5182 72.5386 56.4614C73.0785 56.3051 73.5474 57.0155 73.7321 57.3281C73.9736 57.7401 73.7889 58.0385 73.7037 58.1522C73.5616 58.3227 73.3342 58.4364 73.0785 58.479C73.0501 58.6353 72.979 58.7632 72.8796 58.8626C72.7943 58.9195 72.6522 59.0189 72.4533 59.0189Z" fill="#D8213B"/>
<path d="M77.0422 78.1295C76.8717 78.1295 76.7012 78.0016 76.6728 77.8311L72.8933 58.2518C72.8507 58.0528 72.9928 57.8539 73.1917 57.8113C73.3906 57.7687 73.5895 57.9108 73.6322 58.1097L77.4116 77.689C77.4543 77.888 77.3122 78.0869 77.1132 78.1295C77.0848 78.1153 77.0564 78.1295 77.0422 78.1295Z" fill="#D8213B"/>
<path d="M4 41.4H17.2V19.4C17.2 18.8165 17.4318 18.2569 17.8444 17.8444C18.2569 17.4318 18.8165 17.2 19.4 17.2H41.4V4H19.4C15.3157 4 11.3986 5.6225 8.51056 8.51056C5.6225 11.3986 4 15.3157 4 19.4V41.4Z" fill="#3B3B3B" stroke="white" stroke-width="8"/>
<path d="M4 120.6C4 124.684 5.6225 128.601 8.51056 131.489C11.3986 134.377 15.3157 136 19.4 136H41.4V122.8H19.4C18.8165 122.8 18.2569 122.568 17.8444 122.156C17.4318 121.743 17.2 121.183 17.2 120.6V98.6H4V120.6Z" fill="#3B3B3B" stroke="white" stroke-width="8"/>
<path d="M136.001 120.6V98.6H122.801V120.6C122.801 121.183 122.569 121.743 122.156 122.156C121.744 122.568 121.184 122.8 120.601 122.8H98.6006V136H120.601C124.685 136 128.602 134.377 131.49 131.489C134.378 128.601 136.001 124.684 136.001 120.6Z" fill="#3B3B3B" stroke="white" stroke-width="8"/>
<path d="M136.001 19.4C136.001 15.3157 134.378 11.3986 131.49 8.51056C128.602 5.6225 124.685 4 120.601 4H98.6006V17.2H120.601C121.184 17.2 121.744 17.4318 122.156 17.8444C122.569 18.2569 122.801 18.8165 122.801 19.4V41.4H136.001V19.4Z" fill="#3B3B3B" stroke="white" stroke-width="8"/>
</svg>
